<?xml version="1.0" encoding="UTF-8" standalone="no"?>
<svg
   xmlns:dc="http://purl.org/dc/elements/1.1/"
   xmlns:cc="http://creativecommons.org/ns#"
   xmlns:rdf="http://www.w3.org/1999/02/22-rdf-syntax-ns#"
   xmlns:svg="http://www.w3.org/2000/svg"
   xmlns="http://www.w3.org/2000/svg"
   xmlns:sodipodi="http://sodipodi.sourceforge.net/DTD/sodipodi-0.dtd"
   xmlns:inkscape="http://www.inkscape.org/namespaces/inkscape"
   version="1.1"
   id="svg3737"
   sodipodi:docname="cointelegraph.svg"
   width="267.06201"
   height="62"
   inkscape:version="0.92.4 (5da689c313, 2019-01-14)">
  <metadata
     id="metadata3743">
    <rdf:RDF>
      <cc:Work
         rdf:about="">
        <dc:format>image/svg+xml</dc:format>
        <dc:type
           rdf:resource="http://purl.org/dc/dcmitype/StillImage" />
        <dc:title></dc:title>
      </cc:Work>
    </rdf:RDF>
  </metadata>
  <defs
     id="defs3741" />
  <sodipodi:namedview
     pagecolor="#ffffff"
     bordercolor="#666666"
     borderopacity="1"
     objecttolerance="10"
     gridtolerance="10"
     guidetolerance="10"
     inkscape:pageopacity="0"
     inkscape:pageshadow="2"
     inkscape:window-width="1024"
     inkscape:window-height="705"
     id="namedview3739"
     showgrid="false"
     fit-margin-top="0.3"
     fit-margin-left="0"
     fit-margin-right="0"
     fit-margin-bottom="0"
     inkscape:zoom="3.3662595"
     inkscape:cx="85.257835"
     inkscape:cy="7.2347497"
     inkscape:window-x="-8"
     inkscape:window-y="-8"
     inkscape:window-maximized="1"
     inkscape:current-layer="g3735" />
  <g
     id="g3735"
     style="fill:none">
    <path
       d="m 38.838,45.114 -11.166,4.799 v -0.48 c -2.153,0.545 -4.538,0.859 -6.797,0.96 C 10.374,50.292 2.039,44.859 1.942,38.394 v -2.4 c 3.449,4.958 10.47,8.28 18.933,8.16 2.863,0.12 5.792,-0.328 8.253,-0.96 l 0.971,-2.4 c -2.919,0.861 -6.105,1.46 -9.224,1.44 C 10.374,42.254 2.039,36.821 1.942,30.236 v -1.92 c 3.449,4.583 10.455,7.906 18.933,7.679 3.814,0.227 7.544,-0.566 10.68,-1.92 l 0.486,-2.4 c -3.064,1.598 -7.035,2.526 -11.166,2.4 C 10.374,34.201 2.039,28.768 1.942,22.077 v -1.92 c 3.449,4.69 10.47,8.012 18.933,8.159 4.81,-0.147 9.37,-1.404 13.108,-3.36 l 0.486,-2.88 c -3.393,2.486 -8.346,4.088 -13.594,4.32 C 10.374,26.164 2.04,20.73 1.942,13.918 2.039,7.439 10.374,2.006 20.875,1.92 c 6.26,0.086 12.074,2.256 15.536,5.759 l 0.337,0.555 2.448,0.01 -0.358,-0.565 C 35.395,3.053 28.509,0 20.875,0 9.256,0 0,6.331 0,13.918 v 24.956 c 0.408,7.406 9.453,13.438 20.875,13.438 7.544,0 14.324,-2.933 17.963,-7.198 z"
       id="path3729"
       inkscape:connector-curvature="0"
       style="fill:#000000;fill-opacity:1" />
    <path
       d="m 34.296,62 3.92,-16.469 -11.269,4.844 6.86,-28.578 H 20.577 L 24.007,7.75 h 42.136 l -3.43,14.047 H 48.995 l -2.94,7.75 15.188,-6.297 z m 6.86,-19.86 -1.96,9.688 L 55.364,27.61 42.135,33.423 48.015,19.86 H 61.243 L 63.693,9.688 H 25.477 l -2.45,10.172 h 13.229 l -6.37,27.125 11.27,-4.843 z M 95.171,17.027 c -0.116,1.606 -0.709,2.87 -1.779,3.794 -1.07,0.923 -2.48,1.384 -4.23,1.384 -1.913,0 -3.42,-0.644 -4.516,-1.933 C 83.549,18.984 83,17.215 83,14.966 v -0.913 c 0,-1.435 0.253,-2.7 0.759,-3.794 0.506,-1.093 1.229,-1.933 2.168,-2.517 0.94,-0.585 2.032,-0.877 3.277,-0.877 1.722,0 3.11,0.462 4.163,1.385 1.052,0.922 1.66,2.218 1.825,3.886 H 92.116 C 92.041,11.172 91.772,10.473 91.311,10.039 90.849,9.605 90.147,9.388 89.204,9.388 c -1.026,0 -1.793,0.367 -2.302,1.102 -0.51,0.735 -0.771,1.875 -0.785,3.42 v 1.128 c 0,1.613 0.245,2.792 0.733,3.537 0.49,0.745 1.26,1.118 2.313,1.118 0.95,0 1.659,-0.217 2.127,-0.651 0.469,-0.434 0.737,-1.106 0.805,-2.015 z m 15.884,-2.153 c 0,1.47 -0.26,2.758 -0.78,3.865 -0.519,1.108 -1.262,1.962 -2.23,2.564 -0.967,0.601 -2.076,0.902 -3.327,0.902 -1.237,0 -2.341,-0.297 -3.312,-0.892 -0.97,-0.595 -1.723,-1.444 -2.256,-2.548 -0.533,-1.104 -0.803,-2.374 -0.81,-3.81 v -0.738 c 0,-1.47 0.265,-2.763 0.795,-3.88 0.53,-1.118 1.278,-1.976 2.246,-2.575 0.967,-0.598 2.073,-0.897 3.317,-0.897 1.244,0 2.35,0.3 3.317,0.897 0.967,0.599 1.716,1.457 2.245,2.574 0.53,1.118 0.795,2.408 0.795,3.871 z m -3.117,-0.677 c 0,-1.566 -0.28,-2.755 -0.84,-3.569 -0.561,-0.813 -1.361,-1.22 -2.4,-1.22 -1.033,0 -1.829,0.402 -2.39,1.205 -0.56,0.803 -0.844,1.98 -0.85,3.533 v 0.728 c 0,1.524 0.28,2.707 0.84,3.547 0.56,0.841 1.367,1.262 2.42,1.262 1.032,0 1.825,-0.405 2.38,-1.215 0.553,-0.81 0.833,-1.991 0.84,-3.543 z M 118.16,22 h -3.076 V 7.07 h 3.076 z m 16.592,0 h -3.077 l -5.988,-9.823 V 22 h -3.076 V 7.07 h 3.076 l 5.999,9.844 V 7.07 h 3.066 z M 149.98,9.562 h -4.573 V 22 h -3.076 V 9.562 h -4.512 V 7.07 h 12.161 z m 12.336,5.968 h -5.906 v 3.999 h 6.931 V 22 H 153.333 V 7.07 h 9.988 v 2.492 h -6.911 v 3.558 h 5.906 z m 7.506,3.999 h 6.532 V 22 h -9.608 V 7.07 h 3.076 v 12.46 z m 18.878,-4 h -5.906 v 4 h 6.931 V 22 H 179.718 V 7.07 h 9.987 v 2.492 h -6.911 v 3.558 h 5.906 v 2.41 z m 16.243,4.584 c -0.554,0.663 -1.337,1.178 -2.349,1.543 -1.011,0.366 -2.132,0.55 -3.363,0.55 -1.292,0 -2.425,-0.283 -3.399,-0.847 -0.974,-0.564 -1.726,-1.382 -2.256,-2.456 -0.53,-1.073 -0.801,-2.334 -0.815,-3.783 v -1.016 c 0,-1.49 0.251,-2.78 0.754,-3.87 0.502,-1.09 1.227,-1.925 2.173,-2.502 0.947,-0.578 2.056,-0.867 3.328,-0.867 1.77,0 3.155,0.422 4.153,1.267 0.998,0.844 1.589,2.073 1.774,3.686 h -2.995 c -0.136,-0.855 -0.439,-1.48 -0.907,-1.877 -0.468,-0.396 -1.113,-0.594 -1.933,-0.594 -1.046,0 -1.842,0.393 -2.39,1.179 -0.546,0.786 -0.823,1.955 -0.83,3.507 v 0.953 c 0,1.566 0.298,2.748 0.892,3.548 0.595,0.8 1.467,1.2 2.615,1.2 1.155,0 1.98,-0.246 2.471,-0.738 v -2.574 h -2.799 v -2.266 h 5.876 z m 9.618,-3.578 h -2.45 V 22 h -3.077 V 7.07 h 5.548 c 1.763,0 3.124,0.393 4.08,1.18 0.958,0.786 1.436,1.896 1.436,3.332 0,1.019 -0.22,1.868 -0.661,2.548 -0.441,0.68 -1.11,1.222 -2.005,1.625 l 3.23,6.101 V 22 h -3.302 z m -2.45,-2.492 h 2.48 c 0.773,0 1.371,-0.197 1.795,-0.59 0.424,-0.393 0.636,-0.934 0.636,-1.625 0,-0.704 -0.2,-1.258 -0.6,-1.661 -0.4,-0.403 -1.013,-0.605 -1.84,-0.605 h -2.472 v 4.481 z m 20.354,4.88 h -5.394 L 226.046,22 h -3.271 l 5.558,-14.93 h 2.85 L 236.771,22 h -3.27 l -1.036,-3.076 z m -4.563,-2.49 h 3.732 l -1.876,-5.59 z m 14.94,0.307 V 22 h -3.076 V 7.07 h 5.824 c 1.121,0 2.107,0.205 2.958,0.616 0.852,0.41 1.506,0.992 1.964,1.748 0.458,0.755 0.687,1.615 0.687,2.579 0,1.463 -0.5,2.616 -1.502,3.46 -1.002,0.845 -2.388,1.267 -4.158,1.267 z m 0,-2.492 h 2.748 c 0.814,0 1.434,-0.191 1.861,-0.574 0.428,-0.383 0.641,-0.93 0.641,-1.64 0,-0.732 -0.215,-1.324 -0.646,-1.775 -0.43,-0.45 -1.025,-0.683 -1.784,-0.697 h -2.82 z M 267.062,22 h -3.076 v -6.398 h -5.998 V 22 h -3.077 V 7.07 h 3.077 v 6.05 h 5.998 V 7.07 h 3.076 z"
       id="path3731"
       inkscape:connector-curvature="0"
       style="fill:#fabf2c" />
    <path
       d="M 91.46,35.83 H 88.134 V 45 H 86.296 V 35.83 H 83 v -1.494 h 8.46 z m 3.58,2.11 c 0.581,-0.674 1.316,-1.011 2.205,-1.011 1.69,0 2.546,0.964 2.57,2.893 V 45 h -1.779 v -5.112 c 0,-0.547 -0.118,-0.934 -0.355,-1.161 -0.237,-0.227 -0.585,-0.34 -1.044,-0.34 -0.713,0 -1.245,0.317 -1.597,0.951 V 45 H 93.26 V 33.75 h 1.78 z m 10.664,7.206 c -1.128,0 -2.042,-0.355 -2.743,-1.065 -0.7,-0.71 -1.051,-1.657 -1.051,-2.838 v -0.22 c 0,-0.791 0.153,-1.498 0.458,-2.12 a 3.484,3.484 0 0 1 1.285,-1.454 3.398,3.398 0 0 1 1.846,-0.52 c 1.079,0 1.913,0.344 2.501,1.032 0.588,0.689 0.883,1.663 0.883,2.923 v 0.718 h -5.179 c 0.054,0.654 0.273,1.171 0.656,1.552 0.383,0.381 0.865,0.572 1.446,0.572 0.816,0 1.48,-0.33 1.993,-0.99 l 0.96,0.916 a 3.204,3.204 0 0 1 -1.272,1.103 c -0.53,0.26 -1.124,0.391 -1.783,0.391 z m -0.212,-6.79 c -0.489,0 -0.883,0.172 -1.183,0.514 -0.3,0.341 -0.492,0.817 -0.575,1.428 h 3.39 v -0.132 c -0.038,-0.596 -0.197,-1.046 -0.475,-1.351 -0.279,-0.305 -0.664,-0.458 -1.157,-0.458 z M 115.825,45 v -6.606 h -1.209 v -1.319 h 1.209 V 36.35 c 0,-0.879 0.244,-1.558 0.732,-2.036 0.489,-0.479 1.172,-0.718 2.051,-0.718 0.313,0 0.645,0.044 0.996,0.132 l -0.044,1.392 a 3.505,3.505 0 0 0 -0.681,-0.059 c -0.85,0 -1.274,0.437 -1.274,1.311 v 0.703 h 1.61 v 1.319 h -1.61 V 45 Z m 10.092,-0.776 c -0.522,0.615 -1.265,0.922 -2.227,0.922 -0.859,0 -1.51,-0.251 -1.951,-0.754 -0.442,-0.503 -0.663,-1.23 -0.663,-2.183 v -5.134 h 1.78 v 5.112 c 0,1.006 0.417,1.51 1.252,1.51 0.864,0 1.448,-0.31 1.75,-0.93 v -5.692 h 1.78 V 45 h -1.677 z m 6.364,-9.075 v 1.926 h 1.4 v 1.319 h -1.4 v 4.423 c 0,0.303 0.06,0.522 0.18,0.656 0.12,0.134 0.333,0.201 0.64,0.201 0.206,0 0.413,-0.024 0.623,-0.073 v 1.377 a 4.383,4.383 0 0 1 -1.172,0.168 c -1.367,0 -2.05,-0.754 -2.05,-2.263 v -4.49 h -1.304 v -1.318 h 1.303 V 35.15 h 1.78 z m 8.159,9.075 c -0.523,0.615 -1.265,0.922 -2.227,0.922 -0.86,0 -1.51,-0.251 -1.952,-0.754 -0.442,-0.503 -0.663,-1.23 -0.663,-2.183 v -5.134 h 1.78 v 5.112 c 0,1.006 0.418,1.51 1.253,1.51 0.864,0 1.447,-0.31 1.75,-0.93 v -5.692 h 1.78 V 45 h -1.677 z m 8.283,-5.523 a 4.404,4.404 0 0 0 -0.725,-0.058 c -0.816,0 -1.365,0.312 -1.648,0.937 V 45 h -1.78 v -7.925 h 1.7 l 0.043,0.886 c 0.43,-0.688 1.026,-1.032 1.787,-1.032 0.254,0 0.464,0.034 0.63,0.102 z m 5.075,6.445 c -1.128,0 -2.042,-0.355 -2.743,-1.065 -0.7,-0.71 -1.051,-1.657 -1.051,-2.838 v -0.22 c 0,-0.791 0.153,-1.498 0.458,-2.12 a 3.484,3.484 0 0 1 1.285,-1.454 3.398,3.398 0 0 1 1.846,-0.52 c 1.079,0 1.913,0.344 2.501,1.032 0.588,0.689 0.883,1.663 0.883,2.923 v 0.718 h -5.179 c 0.054,0.654 0.273,1.171 0.656,1.552 0.383,0.381 0.865,0.572 1.446,0.572 0.816,0 1.48,-0.33 1.993,-0.99 l 0.96,0.916 a 3.204,3.204 0 0 1 -1.272,1.103 c -0.53,0.26 -1.124,0.391 -1.783,0.391 z m -0.212,-6.79 c -0.489,0 -0.883,0.172 -1.183,0.514 -0.3,0.341 -0.492,0.817 -0.575,1.428 h 3.39 v -0.132 c -0.038,-0.596 -0.197,-1.046 -0.475,-1.351 -0.279,-0.305 -0.664,-0.458 -1.157,-0.458 z m 9.373,2.608 c 0,-0.776 0.154,-1.475 0.462,-2.098 a 3.37,3.37 0 0 1 1.296,-1.436 c 0.557,-0.334 1.196,-0.501 1.92,-0.501 1.068,0 1.936,0.344 2.603,1.032 0.666,0.689 1.027,1.602 1.08,2.74 l 0.008,0.417 c 0,0.781 -0.15,1.48 -0.45,2.095 a 3.33,3.33 0 0 1 -1.29,1.428 c -0.559,0.337 -1.205,0.505 -1.937,0.505 -1.118,0 -2.013,-0.372 -2.685,-1.116 -0.67,-0.745 -1.007,-1.738 -1.007,-2.978 z m 1.78,0.154 c 0,0.816 0.169,1.454 0.506,1.915 0.336,0.462 0.805,0.693 1.406,0.693 0.6,0 1.068,-0.235 1.402,-0.704 0.335,-0.468 0.502,-1.154 0.502,-2.058 0,-0.8 -0.172,-1.435 -0.516,-1.904 -0.345,-0.469 -0.812,-0.703 -1.403,-0.703 -0.58,0 -1.042,0.23 -1.384,0.692 -0.342,0.462 -0.513,1.151 -0.513,2.07 z M 173.06,45 v -6.606 h -1.209 v -1.319 h 1.209 V 36.35 c 0,-0.879 0.244,-1.558 0.732,-2.036 0.489,-0.479 1.172,-0.718 2.051,-0.718 0.313,0 0.645,0.044 0.996,0.132 l -0.044,1.392 a 3.505,3.505 0 0 0 -0.68,-0.059 c -0.85,0 -1.275,0.437 -1.275,1.311 v 0.703 h 1.611 v 1.319 H 174.84 V 45 Z m 11.3,-7.925 0.051,0.828 c 0.557,-0.65 1.319,-0.974 2.285,-0.974 1.06,0 1.785,0.405 2.176,1.216 0.576,-0.811 1.386,-1.216 2.431,-1.216 0.874,0 1.525,0.241 1.952,0.725 0.427,0.483 0.646,1.196 0.656,2.138 V 45 h -1.78 v -5.156 c 0,-0.503 -0.11,-0.872 -0.33,-1.106 -0.22,-0.235 -0.583,-0.352 -1.09,-0.352 -0.406,0 -0.737,0.109 -0.993,0.326 a 1.719,1.719 0 0 0 -0.539,0.853 L 189.187,45 h -1.78 v -5.215 c -0.025,-0.932 -0.5,-1.399 -1.428,-1.399 -0.713,0 -1.219,0.29 -1.516,0.872 V 45 h -1.78 v -7.925 z m 11.645,3.89 c 0,-0.777 0.154,-1.476 0.461,-2.099 a 3.37,3.37 0 0 1 1.297,-1.436 c 0.556,-0.334 1.196,-0.501 1.919,-0.501 1.069,0 1.937,0.344 2.603,1.032 0.667,0.689 1.027,1.602 1.08,2.74 l 0.008,0.417 c 0,0.781 -0.15,1.48 -0.45,2.095 a 3.33,3.33 0 0 1 -1.29,1.428 c -0.559,0.337 -1.204,0.505 -1.937,0.505 -1.118,0 -2.013,-0.372 -2.684,-1.116 -0.671,-0.745 -1.007,-1.738 -1.007,-2.978 v -0.088 z m 1.78,0.153 c 0,0.816 0.168,1.454 0.505,1.915 0.337,0.462 0.806,0.693 1.406,0.693 0.6,0 1.068,-0.235 1.403,-0.704 0.334,-0.468 0.502,-1.154 0.502,-2.058 0,-0.8 -0.173,-1.435 -0.517,-1.904 -0.344,-0.469 -0.812,-0.703 -1.402,-0.703 -0.581,0 -1.043,0.23 -1.385,0.692 -0.341,0.462 -0.512,1.151 -0.512,2.07 z m 9.345,-4.043 0.051,0.916 c 0.586,-0.708 1.355,-1.062 2.307,-1.062 1.65,0 2.49,0.945 2.52,2.834 V 45 h -1.78 v -5.134 c 0,-0.503 -0.109,-0.876 -0.326,-1.117 -0.217,-0.242 -0.572,-0.363 -1.066,-0.363 -0.717,0 -1.252,0.325 -1.604,0.974 V 45 h -1.78 v -7.925 z m 10.78,8.071 c -1.127,0 -2.042,-0.355 -2.742,-1.065 -0.701,-0.71 -1.051,-1.657 -1.051,-2.838 v -0.22 c 0,-0.791 0.152,-1.498 0.457,-2.12 a 3.484,3.484 0 0 1 1.286,-1.454 3.398,3.398 0 0 1 1.845,-0.52 c 1.08,0 1.913,0.344 2.502,1.032 0.588,0.689 0.882,1.663 0.882,2.923 v 0.718 h -5.178 c 0.054,0.654 0.272,1.171 0.655,1.552 0.384,0.381 0.866,0.572 1.447,0.572 0.815,0 1.48,-0.33 1.992,-0.99 l 0.96,0.916 a 3.204,3.204 0 0 1 -1.271,1.103 c -0.53,0.26 -1.124,0.391 -1.784,0.391 z m -0.212,-6.79 c -0.488,0 -0.882,0.172 -1.183,0.514 -0.3,0.341 -0.492,0.817 -0.575,1.428 h 3.391 v -0.132 c -0.039,-0.596 -0.197,-1.046 -0.476,-1.351 -0.278,-0.305 -0.664,-0.458 -1.157,-0.458 z m 8.049,4.095 1.611,-5.376 h 1.897 l -3.15,9.126 c -0.483,1.333 -1.303,2 -2.46,2 a 3.18,3.18 0 0 1 -0.857,-0.132 v -1.377 l 0.337,0.022 c 0.449,0 0.787,-0.082 1.014,-0.245 0.227,-0.164 0.407,-0.439 0.538,-0.824 l 0.257,-0.682 -2.783,-7.888 h 1.919 z"
       id="path3733"
       inkscape:connector-curvature="0"
       style="fill:#000000" />
  </g>
</svg>
