<svg width="32" height="32" viewBox="0 0 32 32" fill="none" xmlns="http://www.w3.org/2000/svg">
<g clip-path="url(#clip0)">
<path d="M14.7156 23.9244L9.55747 22.1405L8.41941 22.2565L5.95984 29.3231C5.88147 29.5482 6.06384 29.7784 6.30091 29.7535L9.74859 29.3925C9.84491 29.3824 9.94066 29.4157 10.0099 29.4834L12.4883 31.9071C12.6587 32.0737 12.9446 32.0065 13.0229 31.7815L15.4986 24.6687L14.7156 23.9244Z" fill="#98DB7C"/>
<path d="M15.499 24.6687L15.9993 23.2315L8.91867 20.8237L8.41992 22.2566C10.4305 23.6913 12.865 24.5695 15.499 24.6687Z" fill="#82D361"/>
<path d="M17.2829 23.9244L22.441 22.1405L23.5791 22.2565L26.0387 29.3231C26.117 29.5482 25.9347 29.7784 25.6976 29.7535L22.2499 29.3925C22.1536 29.3824 22.0579 29.4157 21.9887 29.4834L19.5103 31.9071C19.3399 32.0737 19.054 32.0065 18.9757 31.7815L16.5 24.6687L17.2829 23.9244Z" fill="#98DB7C"/>
<path d="M16.5002 24.6687L16 23.2315L23.0806 20.8237L23.5794 22.2566C21.5687 23.6913 19.1342 24.5695 16.5002 24.6687Z" fill="#82D361"/>
<path d="M15.9992 22.4649C4.39797 22.4649 4.38835 11.2242 4.39797 11.0303C4.70291 4.88713 9.78035 0 15.9992 0C22.214 0 27.2888 4.88062 27.5998 11.018C27.6099 11.216 27.5998 22.4649 15.9992 22.4649Z" fill="#E0E0E0"/>
<path d="M15.9995 22.0607C9.78066 22.0607 4.70341 17.1735 4.39841 11.0303C4.38879 11.2243 4.38379 11.4195 4.38379 11.6158C4.38379 18.031 9.58435 23.2316 15.9995 23.2316C22.4147 23.2316 27.6153 18.031 27.6153 11.6158C27.6153 11.4194 27.6103 11.2243 27.6007 11.0303C27.2957 17.1735 22.2184 22.0607 15.9995 22.0607Z" fill="#CECECE"/>
<path d="M15.9994 20.0394C6.84865 20.0394 6.85483 11.2239 6.86708 11.0303C7.16902 6.24931 11.1423 2.46506 15.9994 2.46506C20.8565 2.46506 24.8298 6.24931 25.1317 11.0303C25.144 11.2239 25.1317 20.0394 15.9994 20.0394Z" fill="#9E9E9E"/>
<path d="M16.0004 19.5955C11.1433 19.5955 7.17073 15.8111 6.8688 11.0302C6.85655 11.2238 6.84961 11.419 6.84961 11.6157C6.84961 16.6695 10.9465 20.7664 16.0004 20.7664C21.0542 20.7664 25.1511 16.6695 25.1511 11.6157C25.1511 11.4189 25.1442 11.2238 25.1319 11.0302C24.83 15.8111 20.8574 19.5955 16.0004 19.5955Z" fill="#898989"/>
<path d="M18.634 17.0512H13.3889C12.7536 17.0512 12.263 15.9453 12.3108 15.6925C12.4435 14.9907 12.7558 14.3293 13.2221 13.7781L16.9127 9.41635C17.258 9.00822 17.104 8.56847 17.0485 8.44335C16.981 8.29128 16.7713 7.93572 16.2828 7.91922C16.2687 7.91872 16.254 7.91847 16.2393 7.91847C15.5531 7.91847 14.995 8.47672 14.995 9.16291C14.995 9.79822 14.4799 10.3133 13.8446 10.3133C13.2093 10.3133 12.6942 9.79828 12.6942 9.16291C12.6942 7.20816 14.2845 5.61772 16.2393 5.61772C16.2798 5.61772 16.32 5.61841 16.3601 5.61978C17.5832 5.66103 18.6527 6.38566 19.1516 7.51072C19.658 8.6526 19.4731 9.95222 18.669 10.9025L14.9785 15.2642C14.965 15.2803 14.9516 15.2965 14.9386 15.313H18.6341C19.0553 15.313 19.4237 15.5395 19.6241 15.8773C19.7259 16.0489 19.2693 17.0512 18.634 17.0512Z" fill="#E0E0E0"/>
<path d="M18.6338 16.4428H13.3887C12.8943 16.4428 12.474 16.1304 12.3113 15.6927C12.2635 15.9455 12.2383 16.2034 12.2383 16.4634C12.2383 17.0987 12.7533 17.6138 13.3887 17.6138H18.6338C19.2691 17.6138 19.7842 17.0987 19.7842 16.4634C19.7842 16.2493 19.7246 16.0496 19.6228 15.8779C19.4223 16.2157 19.055 16.4428 18.6338 16.4428Z" fill="#CECECE"/>
</g>
<defs>
<clipPath id="clip0">
<rect width="32" height="32" fill="white"/>
</clipPath>
</defs>
</svg>
