<svg width="147" height="170" viewBox="0 0 147 170" fill="none" xmlns="http://www.w3.org/2000/svg">
<path d="M143.873 126.114L74.4448 166.788V87.001L143.906 46.3271V126.114H143.873ZM72.7182 166.489L3.29053 126.114V46.3271L72.7515 86.7021V166.489H72.7182ZM73.5815 2.69824L2.49365 44.0029V126.612L73.5815 167.917L144.669 126.612V44.0029L73.5815 2.69824ZM3.35693 44.4346L73.5815 3.62793L144.669 44.0029L73.5815 85.2412L3.35693 44.4346Z" stroke="#F0F3F5" stroke-width="2" stroke-linejoin="bevel"/>
<path d="M144.669 126.612V44.0029L73.5815 2.69824L2.49365 44.0029V126.612L73.5815 167.917L144.669 126.612Z" stroke="#D3D4D5" stroke-width="4"/>
<path d="M28.5215 141.211L2.92188 126.303V43.6938L28.5215 58.5356V141.211Z" fill="#D3D4D5"/>
<path d="M122.324 30.4807L122.258 56.9104V113.024L145.102 126.305V43.6956L122.324 30.4807Z" fill="#D3D4D5"/>
<path d="M2.92188 43.6938L28.5215 74.3071V58.5356L2.92188 43.6938Z" fill="#ABACAD"/>
<path d="M122.258 87.8223L145.102 116.41L122.258 103.262V87.8223Z" fill="#B5B6B8"/>
<path d="M145.098 116.411V126.305L2.92188 43.696L10.8574 39.114L145.098 116.411Z" fill="#D3D4D5"/>
</svg>
