<svg width="64" height="64" viewBox="0 0 64 64" fill="none" xmlns="http://www.w3.org/2000/svg">
<path d="M27.4396 10.2933L4.8529 48C4.38722 48.8064 4.14081 49.7208 4.1382 50.652C4.1356 51.5833 4.37688 52.499 4.83804 53.3081C5.2992 54.1171 5.96417 54.7913 6.76679 55.2636C7.56941 55.7359 8.4817 55.9898 9.4129 56H54.5862C55.5174 55.9898 56.4297 55.7359 57.2323 55.2636C58.035 54.7913 58.6999 54.1171 59.1611 53.3081C59.6223 52.499 59.8635 51.5833 59.8609 50.652C59.8583 49.7208 59.6119 48.8064 59.1462 48L36.5596 10.2933C36.0842 9.5096 35.4148 8.86164 34.6161 8.41194C33.8174 7.96225 32.9162 7.726 31.9996 7.726C31.0829 7.726 30.1818 7.96225 29.383 8.41194C28.5843 8.86164 27.915 9.5096 27.4396 10.2933V10.2933Z" stroke="#F26F5A" stroke-width="4" stroke-linecap="round" stroke-linejoin="round"/>
<path d="M32 24V34.6667" stroke="#F26F5A" stroke-width="4" stroke-linecap="round" stroke-linejoin="round"/>
<path d="M32 45.3333H32.0267" stroke="#F26F5A" stroke-width="4" stroke-linecap="round" stroke-linejoin="round"/>
</svg>
