<svg width="57" height="58" viewBox="0 0 57 58" fill="none" xmlns="http://www.w3.org/2000/svg">
<path d="M15.6668 55.6667H7.66683C6.25234 55.6667 4.89579 55.1048 3.89559 54.1046C2.8954 53.1044 2.3335 51.7478 2.3335 50.3333V31.6667C2.3335 30.2522 2.8954 28.8956 3.89559 27.8954C4.89579 26.8952 6.25234 26.3333 7.66683 26.3333H15.6668M34.3335 21V10.3333C34.3335 8.2116 33.4906 6.17677 31.9904 4.67648C30.4901 3.17619 28.4552 2.33334 26.3335 2.33334L15.6668 26.3333V55.6667H45.7468C47.033 55.6812 48.2812 55.2304 49.2612 54.3974C50.2413 53.5643 50.8873 52.4051 51.0802 51.1333L54.7602 27.1333C54.8762 26.369 54.8246 25.5885 54.6091 24.846C54.3935 24.1035 54.0191 23.4168 53.5118 22.8334C53.0045 22.25 52.3764 21.7838 51.671 21.4673C50.9657 21.1507 50.1999 20.9912 49.4268 21H34.3335Z" stroke="#F2A365" stroke-width="4" stroke-linecap="round" stroke-linejoin="round"/>
</svg>
