<svg width="32" height="32" viewBox="0 0 32 32" fill="none" xmlns="http://www.w3.org/2000/svg">
<g clip-path="url(#clip0)">
<path d="M9.68809 22.1946L8.41947 22.2565L5.95984 29.3231C5.88147 29.5482 6.06384 29.7784 6.30091 29.7535L9.74859 29.3925C9.84491 29.3824 9.94066 29.4158 10.0099 29.4834L12.4883 31.9071C12.6587 32.0737 12.9446 32.0066 13.0229 31.7815L15.4986 24.6687L14.7686 23.9602L9.68809 22.1946Z" fill="#FF4755"/>
<path d="M15.499 24.6687L15.9993 23.2315L8.91867 20.8237L8.41992 22.2566C10.4305 23.6913 12.865 24.5695 15.499 24.6687Z" fill="#FC2B3A"/>
<path d="M22.3095 22.1946L23.5781 22.2565L26.0377 29.3231C26.1161 29.5482 25.9337 29.7784 25.6966 29.7535L22.249 29.3925C22.1526 29.3824 22.0569 29.4158 21.9877 29.4834L19.5093 31.9071C19.3389 32.0737 19.053 32.0066 18.9747 31.7815L16.499 24.6687L17.229 23.9602L22.3095 22.1946Z" fill="#FF4755"/>
<path d="M16.5002 24.6687L16 23.2315L23.0806 20.8237L23.5794 22.2566C21.5687 23.6913 19.1342 24.5695 16.5002 24.6687Z" fill="#FC2B3A"/>
<path d="M16.0002 22.5072C4.38448 22.5072 4.38935 11.2242 4.39898 11.0302C4.70392 4.88712 9.78135 0 16.0002 0C22.2191 0 27.2965 4.88713 27.6015 11.0303C27.6111 11.2242 27.616 22.5072 16.0002 22.5072Z" fill="#FFE27A"/>
<path d="M15.9995 22.0607C9.78066 22.0607 4.70341 17.1736 4.39841 11.0304C4.38879 11.2243 4.38379 11.4195 4.38379 11.6158C4.38379 18.031 9.58435 23.2316 15.9995 23.2316C22.4147 23.2316 27.6153 18.031 27.6153 11.6158C27.6153 11.4194 27.6103 11.2243 27.6007 11.0304C27.2957 17.1736 22.2184 22.0607 15.9995 22.0607Z" fill="#F9CF58"/>
<path d="M15.9993 20.0079C6.86702 20.0079 6.85477 11.0278 6.86702 10.8341C7.16896 6.05314 11.1422 2.26889 15.9993 2.26889C20.8565 2.26889 24.8297 6.05314 25.1316 10.8341C25.1439 11.0277 25.1316 20.0079 15.9993 20.0079Z" fill="#FFBA57"/>
<path d="M16.0004 19.5957C11.1433 19.5957 7.17073 15.8113 6.8688 11.0304C6.85655 11.224 6.84961 11.4191 6.84961 11.6158C6.84961 16.6696 10.9465 20.7666 16.0004 20.7666C21.0542 20.7666 25.1511 16.6696 25.1511 11.6158C25.1511 11.4191 25.1442 11.224 25.1319 11.0304C24.83 15.8113 20.8574 19.5957 16.0004 19.5957Z" fill="#FFAC3E"/>
<path d="M16.5212 17.0512C15.8859 17.0512 15.3708 16.5362 15.3708 15.9008V15.2924V9.45391C15.3708 9.45391 14.6825 10.1442 13.8589 9.73003C13.2168 9.4071 13.2168 8.57591 13.2168 8.57591L14.6351 6.18178C14.8422 5.83216 15.2185 5.61772 15.6249 5.61772H16.5212C17.1565 5.61772 17.6716 6.13272 17.6716 6.7681V15.2924V15.9008C17.6716 16.5362 17.1565 17.0512 16.5212 17.0512Z" fill="#FFE27A"/>
<path d="M15.2123 8.54994C14.907 9.06538 14.2578 9.28888 13.7164 9.03232C13.4972 8.9285 13.3283 8.76719 13.216 8.57669C12.8965 9.11706 13.0695 9.81225 13.6014 10.1407C14.1499 10.4794 14.8828 10.2772 15.2113 9.7225L15.3704 9.45381V8.59313C15.3704 8.50675 15.2564 8.47557 15.2123 8.54994Z" fill="#F9CF58"/>
<path d="M16.5205 16.4428C15.8852 16.4428 15.3701 15.9278 15.3701 15.2925V16.4634C15.3701 17.0988 15.8852 17.6138 16.5205 17.6138C17.1558 17.6138 17.6709 17.0988 17.6709 16.4634V15.2925C17.6709 15.9278 17.1558 16.4428 16.5205 16.4428Z" fill="#F9CF58"/>
</g>
<defs>
<clipPath id="clip0">
<rect width="32" height="32" fill="white"/>
</clipPath>
</defs>
</svg>
