<svg width="32" height="32" viewBox="0 0 32 32" fill="none" xmlns="http://www.w3.org/2000/svg">
<g clip-path="url(#clip0)">
<path d="M14.6222 23.8633L9.82553 22.2645L8.41941 22.2566L5.95984 29.3232C5.88147 29.5482 6.06384 29.7784 6.30091 29.7535L9.74859 29.3925C9.84491 29.3825 9.94066 29.4158 10.0099 29.4835L12.4883 31.9072C12.6587 32.0738 12.9446 32.0066 13.0229 31.7815L15.4986 24.6687L14.6222 23.8633Z" fill="#0083FD"/>
<path d="M15.499 24.6687L15.9993 23.2315L8.91867 20.8237L8.41992 22.2566C10.4305 23.6913 12.865 24.5695 15.499 24.6687Z" fill="#0072FC"/>
<path d="M17.3763 23.8633L22.1729 22.2645L23.5791 22.2566L26.0387 29.3232C26.1171 29.5483 25.9347 29.7785 25.6976 29.7536L22.2499 29.3926C22.1536 29.3825 22.0579 29.4158 21.9887 29.4835L19.5103 31.9072C19.3399 32.0738 19.054 32.0066 18.9757 31.7816L16.5 24.6688L17.3763 23.8633Z" fill="#0083FD"/>
<path d="M16.5002 24.6687L16 23.2315L23.0806 20.8237L23.5794 22.2566C21.5687 23.6913 19.1342 24.5695 16.5002 24.6687Z" fill="#0072FC"/>
<path d="M15.9992 22.2566C4.39797 22.2566 4.38835 11.2242 4.39797 11.0303C4.70291 4.88713 9.78035 0 15.9992 0C22.2181 0 27.2955 4.88713 27.6005 11.0303C27.6101 11.2242 27.6005 22.2566 15.9992 22.2566Z" fill="#FF9838"/>
<path d="M15.9995 22.0605C9.78066 22.0605 4.70341 17.1733 4.39841 11.0302C4.38879 11.2242 4.38379 11.4193 4.38379 11.6157C4.38379 18.0308 9.58435 23.2314 15.9995 23.2314C22.4147 23.2314 27.6153 18.0308 27.6153 11.6157C27.6153 11.4193 27.6103 11.2242 27.6007 11.0302C27.2957 17.1733 22.2184 22.0605 15.9995 22.0605Z" fill="#FF8709"/>
<path d="M25.1511 11.6158C25.1511 15.5342 21.0542 20.2041 16.0004 20.2041C10.9465 20.2041 6.84961 15.2772 6.84961 11.6158C6.84961 11.4191 6.8558 11.2239 6.86805 11.0303C7.16992 6.24931 11.1432 2.46506 16.0004 2.46506C20.8575 2.46506 24.8308 6.24931 25.1327 11.0303C25.1449 11.2239 25.1511 11.4191 25.1511 11.6158Z" fill="#CE7430"/>
<path d="M16.0004 19.5955C11.1433 19.5955 7.17073 15.8111 6.8688 11.0302C6.85655 11.2238 6.84961 11.4189 6.84961 11.6157C6.84961 16.6695 10.9465 20.7664 16.0004 20.7664C21.0542 20.7664 25.1511 16.6695 25.1511 11.6157C25.1511 11.4189 25.1442 11.2238 25.1319 11.0302C24.83 15.8111 20.8574 19.5955 16.0004 19.5955Z" fill="#BC672E"/>
<path d="M16.0106 17.0513C14.0398 17.0513 12.7858 15.6927 12.5445 14.0808C12.5225 13.9342 12.5156 13.6195 12.5156 13.6195C12.6834 13.1919 13.0998 12.8892 13.5868 12.8892C14.2221 12.8892 14.7372 13.4042 14.7372 14.0396C14.7372 14.7418 15.3085 15.313 16.0106 15.313C16.7128 15.313 17.2841 14.7418 17.2841 14.0396C17.2841 13.8284 17.2325 13.6292 17.1412 13.4537C17.1412 13.4537 17.0548 12.3689 16.0723 12.3689C15.0866 12.3689 15.0206 11.0297 15.0206 11.0297C15.2211 10.6919 15.5895 10.4654 16.0107 10.4654C16.7129 10.4654 17.2842 9.8942 17.2842 9.19201C17.2842 8.48982 16.7129 7.91857 16.0107 7.91857C15.3085 7.91857 14.7373 8.48982 14.7373 9.19201C14.7373 9.82738 14.2222 10.3424 13.5869 10.3424C12.9516 10.3424 12.4365 9.82738 12.4365 9.19201C12.4365 7.22126 14.0399 5.61789 16.0106 5.61789C17.9815 5.61789 19.5848 7.22126 19.5848 9.19201C19.5848 10.1265 19.2245 10.9783 18.6352 11.6158C19.0988 12.1174 19.4208 12.7517 19.537 13.4545C19.537 13.4545 19.5406 13.8403 19.5071 14.0367C19.222 15.7131 17.9815 17.0513 16.0106 17.0513Z" fill="#FFAA5C"/>
<path d="M16.0126 11.5951C15.5914 11.5951 15.2241 11.368 15.0237 11.0302C14.9218 11.2018 14.8623 11.4016 14.8623 11.6157C14.8623 12.251 15.3773 12.766 16.0127 12.766C16.5037 12.766 16.93 13.0459 17.1424 13.4541C17.2337 13.2786 17.2862 13.0798 17.2862 12.8686C17.2861 12.1663 16.7148 11.5951 16.0126 11.5951Z" fill="#EA9957"/>
<path d="M16.0117 16.4427C14.2986 16.4427 12.8637 15.231 12.5176 13.6198C12.4666 13.7499 12.4375 13.8912 12.4375 14.0395C12.4375 16.0103 14.0409 17.6137 16.0117 17.6137C17.9825 17.6137 19.5859 16.0103 19.5859 14.0395C19.5859 13.8402 19.5685 13.645 19.537 13.4545C19.2565 15.1473 17.7829 16.4427 16.0117 16.4427Z" fill="#EA9957"/>
</g>
<defs>
<clipPath id="clip0">
<rect width="32" height="32" fill="white"/>
</clipPath>
</defs>
</svg>
