<svg width="24" height="24" viewBox="0 0 24 24" fill="none" xmlns="http://www.w3.org/2000/svg">
<path d="M8.68255 24C5.11063 23.9794 2.15601 16.6879 2.15601 12.9745C2.15601 6.90873 6.7064 5.58077 8.46008 5.58077C9.2504 5.58077 10.0943 5.89112 10.8386 6.16577C11.3591 6.35734 11.8974 6.55511 12.1968 6.55511C12.376 6.55511 12.7983 6.38688 13.1712 6.23927C13.9663 5.92272 14.9557 5.5293 16.1079 5.5293C16.11 5.5293 16.1128 5.5293 16.1148 5.5293C16.9751 5.5293 19.5837 5.71811 21.152 8.0733L21.5194 8.62534L20.9907 9.0243C20.2354 9.5942 18.8572 10.6338 18.8572 12.6931C18.8572 15.132 20.418 16.07 21.1678 16.5211C21.4988 16.7202 21.8414 16.9255 21.8414 17.3746C21.8414 17.6678 19.5013 23.9636 16.1031 23.9636C15.2716 23.9636 14.6838 23.7137 14.1654 23.4933C13.6408 23.2701 13.1883 23.0779 12.4405 23.0779C12.0615 23.0779 11.5822 23.2571 11.0748 23.4473C10.3813 23.7061 9.59647 24 8.7059 24H8.68255Z" fill="#858C93" fill-opacity="0.5"/>
<path d="M16.4656 0C16.5541 3.19106 14.272 5.40488 11.9926 5.26603C11.617 2.71945 14.2717 0 16.4656 0Z" fill="#858C93" fill-opacity="0.5"/>
</svg>
