<svg width="32" height="32" viewBox="0 0 32 32" fill="none" xmlns="http://www.w3.org/2000/svg">
<path fill-rule="evenodd" clip-rule="evenodd" d="M16 0C7.16344 0 0 7.16344 0 16C0 24.8366 7.16344 32 16 32C24.8366 32 32 24.8366 32 16C32 7.16344 24.8366 0 16 0ZM7.67969 13.251H11.3056V24.1454H7.67969V13.251ZM11.5479 9.8818C11.5244 8.8136 10.7605 8 9.52011 8C8.27969 8 7.46875 8.8136 7.46875 9.8818C7.46875 10.9279 8.25572 11.7649 9.47304 11.7649H9.49621C10.7605 11.7649 11.5479 10.9279 11.5479 9.8818ZM20.2111 12.9971C22.5971 12.9971 24.3859 14.5545 24.3859 17.9008L24.3858 24.1474H20.76V18.3188C20.76 16.8548 20.2353 15.8558 18.9227 15.8558C17.9209 15.8558 17.3243 16.5293 17.0622 17.1798C16.9663 17.4129 16.9428 17.7377 16.9428 18.0633V24.1477H13.3164C13.3164 24.1477 13.3642 14.2755 13.3164 13.2532H16.9428V14.7963C17.424 14.0545 18.286 12.9971 20.2111 12.9971Z" fill="#F0F3F5"/>
</svg>
