<svg width="40" height="40" viewBox="0 0 40 40" fill="none" xmlns="http://www.w3.org/2000/svg">
<path fill-rule="evenodd" clip-rule="evenodd" d="M0 20C0 31.0457 8.9543 40 20 40C31.0457 40 40 31.0457 40 20C40 8.9543 31.0457 0 20 0C8.9543 0 0 8.9543 0 20ZM16.3371 29.1644L16.6774 24.0662L16.6771 24.066L25.9512 15.6968C26.3582 15.3356 25.8623 15.1594 25.322 15.4871L13.8765 22.708L8.93273 21.1649C7.86508 20.838 7.85742 20.1043 9.17243 19.5769L28.4373 12.1484C29.3172 11.7489 30.1664 12.3597 29.8305 13.7064L26.5497 29.167C26.3206 30.2656 25.6568 30.5284 24.7371 30.0209L19.7394 26.3285L17.3371 28.6644C17.3295 28.6717 17.322 28.6791 17.3145 28.6864C17.0458 28.948 16.8235 29.1644 16.3371 29.1644Z" fill="#3E4852"/>
</svg>
