<svg width="40" height="40" viewBox="0 0 40 40" fill="none" xmlns="http://www.w3.org/2000/svg">
<path fill-rule="evenodd" clip-rule="evenodd" d="M40 20C40 31.0457 31.0457 40 20 40C8.9543 40 0 31.0457 0 20C0 8.9543 8.9543 0 20 0C31.0457 0 40 8.9543 40 20ZM9.4901 12.6924C9.73454 12.9179 9.85937 13.249 9.82624 13.584V25.6465C9.89877 26.0817 9.76474 26.5262 9.46521 26.8439L6.66406 30.3212V30.7798H14.6069V30.3212L11.8057 26.8439C11.504 26.5267 11.3617 26.0851 11.4198 25.6465V15.2144L18.3915 30.7798H19.2007L25.189 15.2144V27.6209C25.189 27.952 25.189 28.0157 24.9773 28.2323L22.8235 30.3722V30.8307H33.2811V30.3722L31.2021 28.2832C31.0185 28.14 30.9275 27.9047 30.9655 27.6718V12.323C30.9275 12.0901 31.0185 11.8548 31.2021 11.7116L33.3309 9.62262V9.16406H25.9608L20.7071 22.5768L14.7314 9.16406H7.0002V9.62262L9.4901 12.6924Z" fill="#3E4852"/>
</svg>
