<svg width="40" height="40" viewBox="0 0 40 40" fill="none" xmlns="http://www.w3.org/2000/svg">
<path fill-rule="evenodd" clip-rule="evenodd" d="M20 0C8.9543 0 0 8.9543 0 20C0 31.0457 8.9543 40 20 40C31.0457 40 40 31.0457 40 20C40 8.9543 31.0457 0 20 0ZM12.421 8.66033H28.2458C29.5803 8.66033 30.6668 9.73367 30.6668 11.0637V31.9937L28.1277 29.777L26.6988 28.4703L25.1872 27.082L25.8131 29.2403H12.421C11.0865 29.2403 10 28.167 10 26.837V11.0637C10 9.73367 11.0865 8.66033 12.421 8.66033Z" fill="#3E4852"/>
<path fill-rule="evenodd" clip-rule="evenodd" d="M23.6953 23.8977C23.6953 23.8977 23.2702 23.3961 22.9159 22.9527C24.4629 22.5211 25.0534 21.5644 25.0534 21.5644C24.5692 21.8794 24.1086 22.1011 23.6953 22.2527C23.1048 22.4977 22.538 22.6611 21.9829 22.7544C20.8492 22.9644 19.81 22.9061 18.9243 22.7427C18.2512 22.6144 17.6725 22.4277 17.1883 22.2411C16.9167 22.1361 16.6215 22.0077 16.3263 21.8444C16.3085 21.8327 16.2908 21.824 16.2731 21.8152C16.2554 21.8065 16.2377 21.7977 16.22 21.7861C16.1964 21.7744 16.1845 21.7627 16.1727 21.7511L16.1727 21.7511C15.9602 21.6344 15.8421 21.5527 15.8421 21.5527C15.8421 21.5527 16.4089 22.4861 17.9087 22.9294C17.5544 23.3727 17.1175 23.8977 17.1175 23.8977C14.5076 23.8161 13.5156 22.1244 13.5156 22.1244C13.5156 18.3677 15.2162 15.3228 15.2162 15.3228C16.9167 14.0628 18.5346 14.0978 18.5346 14.0978L18.6527 14.2378C16.527 14.8444 15.5468 15.7661 15.5468 15.7661C15.5468 15.7661 15.8066 15.6261 16.2436 15.4278C17.5072 14.8794 18.511 14.7278 18.9243 14.6928L18.9508 14.6883C19.0104 14.6783 19.0632 14.6694 19.1251 14.6694C19.8454 14.5761 20.6603 14.5528 21.5106 14.6461C22.6325 14.7744 23.837 15.1011 25.0652 15.7661C25.0652 15.7661 24.1322 14.8911 22.1247 14.2844L22.29 14.0978C22.29 14.0978 23.9079 14.0628 25.6084 15.3228C25.6084 15.3228 27.309 18.3677 27.309 22.1244C27.309 22.1244 26.3052 23.8161 23.6953 23.8977ZM18.5316 18.6639C17.8638 18.6639 17.3366 19.2645 17.3366 19.9972C17.3366 20.7299 17.8756 21.3305 18.5316 21.3305C19.1994 21.3305 19.7266 20.7299 19.7266 19.9972C19.7383 19.2645 19.1994 18.6639 18.5316 18.6639ZM21.6172 19.9974C21.6172 19.2647 22.1444 18.6641 22.8123 18.6641C23.4801 18.6641 24.0073 19.2647 24.0073 19.9974C24.0073 20.7301 23.4801 21.3307 22.8123 21.3307C22.1561 21.3307 21.6172 20.7301 21.6172 19.9974Z" fill="#3E4852"/>
</svg>
