<svg width="40" height="40" viewBox="0 0 40 40" fill="none" xmlns="http://www.w3.org/2000/svg">
<path fill-rule="evenodd" clip-rule="evenodd" d="M20 0C8.9543 0 0 8.9543 0 20C0 31.0457 8.9543 40 20 40C31.0457 40 40 31.0457 40 20C40 8.9543 31.0457 0 20 0ZM19.443 16.9485L19.401 16.2564C19.2751 14.4628 20.3803 12.8244 22.129 12.1889C22.7725 11.9629 23.8637 11.9347 24.5771 12.1324C24.8569 12.2171 25.3885 12.4996 25.7663 12.7538L26.4517 13.2199L27.2072 12.9798C27.6269 12.8527 28.1865 12.6408 28.4383 12.4996C28.6761 12.3725 28.8859 12.3019 28.8859 12.3443C28.8859 12.5844 28.3683 13.4035 27.9346 13.8555C27.3471 14.491 27.515 14.5475 28.7041 14.1238C29.4175 13.8837 29.4315 13.8837 29.2916 14.152C29.2077 14.2933 28.774 14.7876 28.3124 15.2395C27.5289 16.0163 27.487 16.1011 27.487 16.7507C27.487 17.7535 27.0113 19.8438 26.5357 20.9878C25.6543 23.1345 23.7658 25.3519 21.8772 26.4676C19.2191 28.0353 15.6798 28.4308 12.7 27.5128C11.7067 27.202 10 26.4111 10 26.2699C10 26.2275 10.5176 26.171 11.1471 26.1569C12.4622 26.1287 13.7772 25.7615 14.8964 25.1118L15.6518 24.6598L14.7844 24.3632C13.5534 23.9395 12.4482 22.965 12.1684 22.047C12.0844 21.7504 12.1124 21.7363 12.8958 21.7363L13.7072 21.7222L13.0217 21.3973C12.2104 20.9878 11.4689 20.2957 11.1052 19.5895C10.8394 19.0811 10.5036 17.7959 10.6016 17.697C10.6295 17.6546 10.9233 17.7394 11.2591 17.8524C12.2243 18.2055 12.3503 18.1207 11.7907 17.5275C10.7414 16.4542 10.4197 14.8582 10.9233 13.347L11.1611 12.6691L12.0844 13.5871C13.973 15.4373 16.1974 16.5389 18.7435 16.8637L19.443 16.9485Z" fill="#3E4852"/>
</svg>
