<svg width="40" height="40" viewBox="0 0 40 40" fill="none" xmlns="http://www.w3.org/2000/svg">
<path fill-rule="evenodd" clip-rule="evenodd" d="M20 0C8.9543 0 0 8.9543 0 20C0 31.0457 8.9543 40 20 40C31.0457 40 40 31.0457 40 20C40 8.9543 31.0457 0 20 0ZM28.3373 13.122C29.2552 13.3739 29.9781 14.1161 30.2234 15.0586C30.6693 16.7668 30.6693 20.3309 30.6693 20.3309C30.6693 20.3309 30.6693 23.895 30.2234 25.6033C29.9781 26.5458 29.2552 27.288 28.3373 27.54C26.6737 27.9976 20.0026 27.9976 20.0026 27.9976C20.0026 27.9976 13.3314 27.9976 11.6678 27.54C10.7499 27.288 10.027 26.5458 9.78163 25.6033C9.33594 23.895 9.33594 20.3309 9.33594 20.3309C9.33594 20.3309 9.33594 16.7668 9.78163 15.0586C10.027 14.1161 10.7499 13.3739 11.6678 13.122C13.3314 12.6642 20.0026 12.6642 20.0026 12.6642C20.0026 12.6642 26.6737 12.6642 28.3373 13.122Z" fill="#3E4852"/>
<path d="M18.0078 24.0026V17.3359L23.3411 20.6694L18.0078 24.0026Z" fill="#3E4852"/>
</svg>
