<svg width="40" height="40" viewBox="0 0 40 40" fill="none" xmlns="http://www.w3.org/2000/svg">
<path d="M20.0002 0C8.95583 0 0 9.18053 0 20.5062C0 29.5665 5.73066 37.2532 13.6773 39.9648C14.6769 40.1546 15.0438 39.5199 15.0438 38.9783C15.0438 38.4893 15.0253 36.8739 15.0167 35.1604C9.45262 36.4009 8.27853 32.7409 8.27853 32.7409C7.36874 30.3706 6.05788 29.7404 6.05788 29.7404C4.24326 28.4676 6.19466 28.4938 6.19466 28.4938C8.20302 28.6381 9.26053 30.607 9.26053 30.607C11.0443 33.742 13.9393 32.8356 15.0806 32.3117C15.2601 30.9866 15.7784 30.0813 16.3504 29.5695C11.9081 29.051 7.23825 27.2927 7.23825 19.4351C7.23825 17.1963 8.01954 15.367 9.29894 13.9309C9.09129 13.4141 8.40671 11.3287 9.49269 8.50409C9.49269 8.50409 11.1722 7.95295 14.9942 10.6061C16.5895 10.1517 18.3005 9.92387 20.0002 9.91606C21.6999 9.92387 23.4121 10.1517 25.0105 10.6061C28.8278 7.95295 30.505 8.50409 30.505 8.50409C31.5936 11.3287 30.9087 13.4141 30.7011 13.9309C31.9834 15.367 32.7594 17.1963 32.7594 19.4351C32.7594 27.3113 28.0806 29.0456 23.6271 29.5532C24.3444 30.1896 24.9836 31.4376 24.9836 33.3508C24.9836 36.0942 24.9605 38.3025 24.9605 38.9783C24.9605 39.524 25.3205 40.1634 26.3343 39.962C34.2766 37.2474 40 29.5634 40 20.5062C40 9.18053 31.0455 0 20.0002 0Z" fill="#3E4852"/>
<path d="M7.57479 29.4419C7.53073 29.5443 7.37438 29.5746 7.23194 29.5045C7.08685 29.4375 7.00536 29.2984 7.0524 29.1961C7.09547 29.091 7.25215 29.062 7.39691 29.1318C7.54233 29.1991 7.62514 29.3396 7.57479 29.4419Z" fill="#3E4852"/>
<path d="M8.3853 30.3703C8.2899 30.4611 8.10341 30.4189 7.97687 30.2754C7.84602 30.1322 7.82151 29.9407 7.91824 29.8485C8.01662 29.7577 8.19748 29.8003 8.32866 29.9434C8.4595 30.0883 8.48501 30.2784 8.3853 30.3703Z" fill="#3E4852"/>
<path d="M9.17884 31.5541C9.05633 31.6415 8.85601 31.5596 8.73218 31.3769C8.60967 31.1943 8.60967 30.9752 8.73483 30.8875C8.85899 30.7997 9.05633 30.8786 9.18182 31.0599C9.30399 31.2453 9.30399 31.4647 9.17884 31.5541Z" fill="#3E4852"/>
<path d="M10.2489 32.6857C10.1392 32.8099 9.90567 32.7765 9.73473 32.6072C9.55982 32.4415 9.51112 32.2065 9.6211 32.0823C9.73208 31.9578 9.96696 31.9929 10.1392 32.1609C10.3128 32.3262 10.3658 32.5629 10.2489 32.6857Z" fill="#3E4852"/>
<path d="M11.7429 33.3549C11.6945 33.5158 11.4696 33.5889 11.2431 33.5205C11.0169 33.4501 10.8688 33.2617 10.9145 33.0991C10.9616 32.9372 11.1874 32.861 11.4156 32.9341C11.6415 33.0042 11.7899 33.1913 11.7429 33.3549Z" fill="#3E4852"/>
<path d="M13.3827 33.4775C13.3883 33.6469 13.1963 33.7873 12.9585 33.79C12.7195 33.7958 12.5261 33.6588 12.5234 33.4921C12.5234 33.321 12.7112 33.1819 12.9503 33.1779C13.188 33.1731 13.3827 33.3091 13.3827 33.4775Z" fill="#3E4852"/>
<path d="M14.9075 33.2114C14.936 33.3767 14.7707 33.5464 14.5345 33.5913C14.3024 33.6352 14.0874 33.5331 14.0579 33.3692C14.0291 33.1998 14.1974 33.0301 14.4292 32.9862C14.6657 32.9441 14.8774 33.0434 14.9075 33.2114Z" fill="#3E4852"/>
</svg>
