<svg width="40" height="40" viewBox="0 0 40 40" fill="none" xmlns="http://www.w3.org/2000/svg">
<path fill-rule="evenodd" clip-rule="evenodd" d="M20 0C8.9543 0 0 8.9543 0 20C0 31.0457 8.9543 40 20 40C31.0457 40 40 31.0457 40 20C40 8.9543 31.0457 0 20 0ZM9.60938 16.5687H14.1418V30.1869H9.60938V16.5687ZM14.4351 12.354C14.4057 11.0188 13.4508 10.0018 11.9002 10.0018C10.3497 10.0018 9.33594 11.0188 9.33594 12.354C9.33594 13.6616 10.3197 14.7078 11.8414 14.7078H11.8704C13.4508 14.7078 14.4351 13.6616 14.4351 12.354ZM25.2659 16.25C28.2484 16.25 30.4844 18.1968 30.4844 22.3797L30.4842 30.1879H25.952V22.9022C25.952 21.0722 25.2962 19.8234 23.6554 19.8234C22.4033 19.8234 21.6575 20.6653 21.3299 21.4784C21.21 21.7698 21.1806 22.1758 21.1806 22.5828V30.1883H16.6477C16.6477 30.1883 16.7075 17.848 16.6477 16.5701H21.1806V18.499C21.7822 17.5718 22.8596 16.25 25.2659 16.25Z" fill="#3E4852"/>
</svg>
