<svg width="20" height="20" viewBox="0 0 20 20" fill="none" xmlns="http://www.w3.org/2000/svg">
<g clip-path="url(#clip0)">
<path d="M2.98447 17.6633H14.867L14.2995 15.8258L15.657 16.9908L16.9011 18.1058L19.1678 20V2.0625C19.1111 0.9475 18.1511 0 16.9611 0L2.98864 0.0025C1.79947 0.0025 0.834473 0.951667 0.834473 2.06667V15.6C0.834473 16.7758 1.79781 17.6633 2.98447 17.6633ZM11.7745 4.73583L11.747 4.74583L11.757 4.73583H11.7745ZM5.41531 5.79333C6.94281 4.68167 8.35864 4.735 8.35864 4.735L8.47281 4.8475C6.60364 5.29333 5.75614 6.12833 5.75614 6.12833C5.75614 6.12833 5.98281 6.0175 6.37864 5.84833C8.89614 4.85833 11.6453 4.93 14.1903 6.18333C14.1903 6.18333 13.3411 5.4025 11.587 4.9025L11.742 4.75C11.9845 4.75083 13.2678 4.79583 14.6411 5.8C14.6411 5.8 16.1778 8.425 16.1778 11.65C16.127 11.5883 15.2245 13.0383 12.902 13.0883C12.902 13.0883 12.5086 12.6433 12.2286 12.255C13.587 11.865 14.0953 11.085 14.0953 11.085C13.6495 11.3658 13.2428 11.5325 12.9128 11.6992C12.4053 11.9225 11.897 12.0325 11.3895 12.145C8.98614 12.535 7.63697 11.8825 6.36197 11.365L5.92614 11.1433C5.92614 11.1433 6.43364 11.9233 7.73781 12.3133C7.39531 12.7042 7.05614 13.1483 7.05614 13.1483C4.73447 13.0933 3.88781 11.6433 3.88781 11.6433C3.88781 8.41333 5.41531 5.79333 5.41531 5.79333Z" fill="#676C70"/>
<path d="M11.9224 10.6432C12.5149 10.6432 12.9974 10.1432 12.9974 9.52656C12.9974 8.91406 12.5174 8.41406 11.9224 8.41406V8.41656C11.3324 8.41656 10.8491 8.9149 10.8474 9.53156C10.8474 10.1432 11.3299 10.6432 11.9224 10.6432Z" fill="#676C70"/>
<path d="M8.07524 10.6432C8.66774 10.6432 9.15024 10.1432 9.15024 9.52656C9.15024 8.91406 8.67107 8.41406 8.07858 8.41406L8.07524 8.41656C7.48274 8.41656 7.00024 8.9149 7.00024 9.53156C7.00024 10.1432 7.48274 10.6432 8.07524 10.6432Z" fill="#676C70"/>
</g>
<defs>
<clipPath id="clip0">
<rect width="20" height="20" fill="white"/>
</clipPath>
</defs>
</svg>
