<svg width="20" height="20" viewBox="0 0 20 20" fill="none" xmlns="http://www.w3.org/2000/svg">
<path d="M10 0.416016C4.475 0.416016 0 4.81602 0 10.2427C0 14.5852 2.865 18.2677 6.8375 19.566C7.3375 19.6585 7.52083 19.3543 7.52083 19.0935C7.52083 18.8602 7.5125 18.2418 7.50833 17.4227C4.72667 18.0152 4.14 16.1043 4.14 16.1043C3.685 14.9702 3.0275 14.6668 3.0275 14.6668C2.12167 14.0577 3.0975 14.0702 3.0975 14.0702C4.10167 14.1385 4.62917 15.0827 4.62917 15.0827C5.52083 16.5852 6.97 16.151 7.54167 15.9002C7.63167 15.2643 7.88917 14.8318 8.175 14.586C5.95417 14.3402 3.62 13.4952 3.62 9.73018C3.62 8.65768 4.0075 7.78101 4.64917 7.09351C4.53667 6.84518 4.19917 5.84602 4.73667 4.49268C4.73667 4.49268 5.57417 4.22935 7.48667 5.50018C8.28667 5.28185 9.13667 5.17352 9.98667 5.16852C10.8367 5.17352 11.6867 5.28185 12.4867 5.50018C14.3867 4.22935 15.2242 4.49268 15.2242 4.49268C15.7617 5.84602 15.4242 6.84518 15.3242 7.09351C15.9617 7.78101 16.3492 8.65768 16.3492 9.73018C16.3492 13.5052 14.0117 14.336 11.7867 14.5777C12.1367 14.8727 12.4617 15.4752 12.4617 16.396C12.4617 17.711 12.4492 18.7677 12.4492 19.0868C12.4492 19.3443 12.6242 19.6518 13.1367 19.5535C17.1375 18.2635 20 14.5785 20 10.2427C20 4.81602 15.5225 0.416016 10 0.416016Z" fill="#676C70"/>
</svg>
