<svg width="20" height="20" viewBox="0 0 20 20" fill="none" xmlns="http://www.w3.org/2000/svg">
<path d="M7.23518 20.0002C4.25857 19.983 1.79639 13.9068 1.79639 10.8123C1.79639 5.75744 5.58838 4.6508 7.04979 4.6508C7.70838 4.6508 8.41162 4.90943 9.03189 5.1383C9.46564 5.29795 9.91424 5.46275 10.1637 5.46275C10.3131 5.46275 10.665 5.32256 10.9757 5.19955C11.6383 4.93576 12.4628 4.60791 13.423 4.60791C13.4247 4.60791 13.427 4.60791 13.4287 4.60791C14.1456 4.60791 16.3195 4.76525 17.6264 6.72791L17.9325 7.18795L17.4919 7.52041C16.8625 7.99533 15.7141 8.86166 15.7141 10.5777C15.7141 12.6102 17.0147 13.3918 17.6396 13.7678C17.9154 13.9337 18.2009 14.1048 18.2009 14.479C18.2009 14.7233 16.2508 19.9699 13.419 19.9699C12.726 19.9699 12.2362 19.7616 11.8042 19.5779C11.3671 19.3919 10.9899 19.2317 10.3668 19.2317C10.051 19.2317 9.65154 19.3811 9.22869 19.5396C8.65084 19.7553 7.99678 20.0002 7.25463 20.0002H7.23518Z" fill="#B5B6B8" fill-opacity="0.5"/>
<path d="M13.7212 0C13.795 2.65922 11.8932 4.50406 9.9937 4.38836C9.68069 2.26621 11.893 0 13.7212 0Z" fill="#B5B6B8" fill-opacity="0.5"/>
</svg>
