<svg xmlns="http://www.w3.org/2000/svg" xmlns:xlink="http://www.w3.org/1999/xlink"><defs><symbol viewBox="0 0 20 20" id="account"><path d="M10 0c5.52 0 10 4.48 10 10s-4.48 10-10 10S0 15.52 0 10 4.48 0 10 0zM4.023 13.416C5.491 15.606 7.695 17 10.16 17c2.464 0 4.669-1.393 6.136-3.584A8.968 8.968 0 0 0 10.16 11a8.968 8.968 0 0 0-6.137 2.416zM10 9a3 3 0 1 0 0-6 3 3 0 0 0 0 6z" /></symbol><symbol viewBox="0 0 32 32" id="alert"><g clip-path="url(#alert_a)" stroke-width="3" stroke-linecap="round" stroke-linejoin="round"><path d="M16 29.333c7.364 0 13.333-5.97 13.333-13.333 0-7.364-5.97-13.334-13.333-13.334C8.636 2.666 2.666 8.636 2.666 16S8.636 29.333 16 29.333zM16 10.666V16M16 21.334h.013" /></g><defs></defs></symbol><clipPath id="alert_a"><path d="M0 0h32v32H0z" /></clipPath><symbol viewBox="0 0 8 4" id="arrow-down"><path d="M3.998 2.586 6.473.11l.707.707L3.998 4 .816.818 1.523.11l2.475 2.475z" /></symbol><symbol viewBox="0 0 24 24" id="burger"><path d="M2 12h20M2 6h20M2 18h20" stroke-width="2" stroke-linecap="round" stroke-linejoin="round" /></symbol><symbol viewBox="0 0 22 2" id="burger-closed"><path d="M1 1h20" stroke-width="2" stroke-linecap="round" stroke-linejoin="round" /></symbol><symbol viewBox="0 0 32 32" id="card-linkedIn"><path clip-rule="evenodd" d="M16 0C7.163 0 0 7.163 0 16s7.163 16 16 16 16-7.163 16-16S24.837 0 16 0zM7.68 13.251h3.626v10.894H7.68V13.251zm3.868-3.37C11.524 8.815 10.76 8 9.52 8 8.28 8 7.47 8.814 7.47 9.882c0 1.046.787 1.883 2.004 1.883h.023c1.264 0 2.052-.837 2.052-1.883zm8.663 3.116c2.386 0 4.175 1.558 4.175 4.904v6.246H20.76V18.32c0-1.464-.525-2.463-1.837-2.463-1.002 0-1.599.673-1.86 1.324-.097.233-.12.558-.12.883v6.085h-3.627s.048-9.873 0-10.895h3.627v1.543c.481-.741 1.343-1.799 3.268-1.799z" /></symbol><symbol viewBox="0 0 24 24" id="change"><path clip-rule="evenodd" d="M17.707 4.293a1 1 0 1 0-1.414 1.414L17.586 7H10a1 1 0 0 0 0 2h7.586l-1.293 1.293a1 1 0 0 0 1.414 1.414l3-3a1 1 0 0 0 0-1.414l-3-3zm-11.414 8a1 1 0 0 1 1.414 1.414L6.414 15H14a1 1 0 1 1 0 2H6.414l1.293 1.293a1 1 0 1 1-1.414 1.414l-3-3a1 1 0 0 1 0-1.414l3-3z" /></symbol><symbol viewBox="0 0 40 40" id="close"><path d="M30 10 10 30M10 10l20 20" stroke-width="3" stroke-linecap="round" stroke-linejoin="round" /></symbol><symbol viewBox="0 0 24 24" id="close-dark"><path d="M18 6 6 18M6 6l12 12" stroke-width="2" stroke-linecap="round" stroke-linejoin="round" /></symbol><symbol viewBox="0 0 40 40" id="contacts-discord"><path clip-rule="evenodd" d="M20 0C8.954 0 0 8.954 0 20s8.954 20 20 20 20-8.954 20-20S31.046 0 20 0zm-7.579 8.66h15.825a2.412 2.412 0 0 1 2.42 2.404v20.93l-2.538-2.217-1.43-1.307-1.51-1.388.625 2.158H12.421A2.412 2.412 0 0 1 10 26.837V11.064a2.412 2.412 0 0 1 2.421-2.404z" /><path clip-rule="evenodd" d="M23.695 23.898s-.425-.502-.78-.945c1.548-.432 2.138-1.389 2.138-1.389a6.787 6.787 0 0 1-1.358.689 7.843 7.843 0 0 1-1.712.501 8.37 8.37 0 0 1-3.059-.011 10.01 10.01 0 0 1-1.736-.502 6.964 6.964 0 0 1-.862-.397c-.018-.011-.035-.02-.053-.029a.48.48 0 0 1-.053-.029c-.024-.012-.035-.023-.047-.035-.213-.117-.33-.198-.33-.198s.566.933 2.066 1.376c-.355.444-.791.969-.791.969-2.61-.082-3.602-1.774-3.602-1.774 0-3.756 1.7-6.801 1.7-6.801 1.7-1.26 3.319-1.225 3.319-1.225l.118.14c-2.126.606-3.106 1.528-3.106 1.528s.26-.14.697-.338c1.263-.549 2.267-.7 2.68-.735l.027-.005c.06-.01.112-.019.174-.019.72-.093 1.535-.116 2.386-.023a9.71 9.71 0 0 1 3.554 1.12s-.933-.875-2.94-1.482l.165-.186s1.618-.035 3.318 1.225c0 0 1.701 3.045 1.701 6.801 0 0-1.004 1.692-3.614 1.774zm-5.163-5.234c-.668 0-1.195.6-1.195 1.333s.539 1.334 1.195 1.334c.667 0 1.195-.601 1.195-1.334.011-.732-.528-1.333-1.195-1.333zm3.085 1.333c0-.732.527-1.333 1.195-1.333s1.195.6 1.195 1.333-.527 1.334-1.195 1.334c-.656 0-1.195-.6-1.195-1.334z" /></symbol><symbol viewBox="0 0 40 40" id="contacts-git-hub"><path d="M20 0C8.956 0 0 9.18 0 20.506c0 9.06 5.73 16.747 13.677 19.459 1 .19 1.367-.445 1.367-.987 0-.489-.019-2.104-.027-3.818-5.564 1.24-6.738-2.42-6.738-2.42-.91-2.37-2.221-3-2.221-3-1.815-1.272.137-1.246.137-1.246 2.008.144 3.066 2.113 3.066 2.113 1.783 3.135 4.678 2.229 5.82 1.705.18-1.325.697-2.23 1.27-2.742-4.443-.519-9.113-2.277-9.113-10.135 0-2.239.782-4.068 2.06-5.504-.207-.517-.891-2.602.195-5.427 0 0 1.68-.551 5.501 2.102A18.725 18.725 0 0 1 20 9.916c1.7.008 3.412.236 5.01.69 3.818-2.653 5.495-2.102 5.495-2.102 1.089 2.825.404 4.91.196 5.427 1.282 1.436 2.058 3.265 2.058 5.504 0 7.876-4.678 9.61-9.132 10.118.717.637 1.357 1.885 1.357 3.798 0 2.743-.024 4.952-.024 5.627 0 .546.36 1.185 1.374.984C34.277 37.247 40 29.563 40 20.506 40 9.181 31.046 0 20 0z" /><path d="M7.575 29.442c-.044.102-.2.133-.343.063-.145-.067-.227-.207-.18-.309.043-.105.2-.134.345-.064.145.067.228.208.178.31zM8.385 30.37c-.095.091-.282.049-.408-.095-.131-.143-.155-.334-.059-.426.099-.091.28-.049.41.094.132.145.157.335.057.427zM9.179 31.554c-.123.088-.323.006-.447-.177-.122-.183-.122-.402.003-.49.124-.087.321-.008.447.173.122.185.122.405-.003.494zM10.249 32.686c-.11.124-.343.09-.514-.079-.175-.166-.224-.4-.114-.525.111-.124.346-.09.518.079.174.165.227.402.11.525zM11.743 33.355c-.049.16-.273.234-.5.166-.226-.07-.374-.26-.329-.422.048-.162.273-.238.502-.165.226.07.374.257.327.42zM13.383 33.477c.005.17-.187.31-.424.313-.24.006-.433-.131-.436-.298 0-.171.188-.31.427-.314.238-.005.433.131.433.3zM14.908 33.211c.028.166-.137.335-.373.38-.233.044-.448-.058-.477-.222-.029-.17.14-.339.371-.383.237-.042.448.057.479.225z" /></symbol><symbol viewBox="0 0 40 40" id="contacts-linked-in"><path clip-rule="evenodd" d="M20 0C8.954 0 0 8.954 0 20s8.954 20 20 20 20-8.954 20-20S31.046 0 20 0zM9.61 16.569h4.532v13.618H9.609V16.569zm4.825-4.215c-.03-1.335-.984-2.352-2.535-2.352-1.55 0-2.564 1.017-2.564 2.352 0 1.308.984 2.354 2.505 2.354h.03c1.58 0 2.564-1.046 2.564-2.354zm10.83 3.896c2.983 0 5.22 1.947 5.22 6.13v7.808h-4.533v-7.286c0-1.83-.656-3.079-2.297-3.079-1.252 0-1.998.842-2.325 1.655-.12.292-.15.698-.15 1.105v7.605h-4.532s.06-12.34 0-13.618h4.533V18.5c.601-.927 1.679-2.249 4.085-2.249z" /></symbol><symbol viewBox="0 0 40 40" id="contacts-medium"><path clip-rule="evenodd" d="M40 20c0 11.046-8.954 20-20 20S0 31.046 0 20 8.954 0 20 0s20 8.954 20 20zM9.49 12.692c.245.226.37.557.336.892v12.063a1.41 1.41 0 0 1-.36 1.197L6.663 30.32v.459h7.943v-.459l-2.801-3.477a1.46 1.46 0 0 1-.386-1.198V15.214l6.972 15.566h.809l5.988-15.566v12.407c0 .331 0 .395-.212.611l-2.154 2.14v.459h10.458v-.459l-2.079-2.089a.644.644 0 0 1-.237-.611V12.323a.644.644 0 0 1 .237-.611l2.129-2.09v-.458h-7.37l-5.254 13.413-5.976-13.413h-7.73v.459l2.49 3.07z" /></symbol><symbol viewBox="0 0 40 40" id="contacts-telegram"><path clip-rule="evenodd" d="M0 20c0 11.046 8.954 20 20 20s20-8.954 20-20S31.046 0 20 0 0 8.954 0 20zm16.337 9.164.34-5.098 9.274-8.37c.407-.36-.089-.537-.629-.209l-11.445 7.221-4.944-1.543c-1.068-.327-1.076-1.06.24-1.588l19.264-7.429c.88-.4 1.73.212 1.393 1.558l-3.28 15.461c-.23 1.099-.893 1.361-1.813.854l-4.998-3.693-2.402 2.336-.023.022c-.268.262-.49.478-.977.478z" /></symbol><symbol viewBox="0 0 40 40" id="contacts-twitter"><path clip-rule="evenodd" d="M20 0C8.954 0 0 8.954 0 20s8.954 20 20 20 20-8.954 20-20S31.046 0 20 0zm-.557 16.948-.042-.692c-.126-1.793.98-3.432 2.728-4.067.643-.226 1.735-.254 2.448-.057.28.085.811.368 1.19.622l.685.466.755-.24c.42-.127.98-.34 1.231-.48.238-.127.448-.198.448-.156 0 .24-.518 1.06-.951 1.511-.588.636-.42.692.77.269.713-.24.727-.24.587.028-.084.141-.518.636-.98 1.088-.783.776-.825.861-.825 1.51 0 1.003-.476 3.094-.951 4.238-.882 2.146-2.77 4.364-4.659 5.48-2.658 1.567-6.197 1.963-9.177 1.045-.993-.311-2.7-1.102-2.7-1.243 0-.043.518-.099 1.147-.113a7.876 7.876 0 0 0 3.75-1.045l.755-.452-.868-.297c-1.23-.424-2.336-1.398-2.616-2.316-.084-.297-.056-.31.728-.31l.811-.015-.685-.325c-.812-.41-1.553-1.101-1.917-1.807-.266-.509-.601-1.794-.503-1.893.027-.042.321.042.657.155.965.354 1.091.269.532-.325-1.05-1.073-1.371-2.669-.868-4.18l.238-.678.923.918c1.889 1.85 4.113 2.952 6.66 3.277l.699.084z" /></symbol><symbol viewBox="0 0 40 40" id="contacts-youtube"><path clip-rule="evenodd" d="M20 0C8.954 0 0 8.954 0 20s8.954 20 20 20 20-8.954 20-20S31.046 0 20 0zm8.337 13.122c.918.252 1.641.994 1.886 1.937.446 1.708.446 5.272.446 5.272s0 3.564-.446 5.272a2.709 2.709 0 0 1-1.886 1.937c-1.663.458-8.334.458-8.334.458s-6.672 0-8.335-.458a2.709 2.709 0 0 1-1.886-1.937c-.446-1.708-.446-5.272-.446-5.272s0-3.564.446-5.272a2.709 2.709 0 0 1 1.886-1.937c1.663-.458 8.335-.458 8.335-.458s6.67 0 8.334.458z" /><path d="M18.008 24.003v-6.667l5.333 3.333-5.333 3.334z" /></symbol><symbol viewBox="0 0 24 24" id="copy"><path d="M19.154 9h-8.308C9.826 9 9 9.827 9 10.846v8.308C9 20.174 9.827 21 10.846 21h8.308c1.02 0 1.846-.827 1.846-1.846v-8.308C21 9.826 20.173 9 19.154 9z" stroke-width="2" stroke-linecap="round" stroke-linejoin="round" /><path d="M5.77 15h-.924A1.846 1.846 0 0 1 3 13.154V4.846A1.846 1.846 0 0 1 4.846 3h8.308A1.846 1.846 0 0 1 15 4.846v.923" stroke-width="2" stroke-linecap="round" stroke-linejoin="round" /></symbol><symbol viewBox="0 0 20 20" id="discord"><g clip-path="url(#discord_a)"><path d="M2.984 17.663h11.883l-.568-1.837 1.358 1.165 1.244 1.115L19.168 20V2.062C19.11.948 18.15 0 16.96 0L2.99.003C1.799.003.834.951.834 2.067V15.6c0 1.176.964 2.063 2.15 2.063zm8.79-12.927-.027.01.01-.01h.018zM5.415 5.793C6.943 4.682 8.36 4.735 8.36 4.735l.114.112c-1.87.446-2.717 1.281-2.717 1.281s.227-.11.623-.28c2.517-.99 5.266-.918 7.811.335 0 0-.849-.78-2.603-1.28l.155-.153c.242 0 1.526.046 2.9 1.05 0 0 1.536 2.625 1.536 5.85-.051-.062-.954 1.388-3.276 1.438 0 0-.393-.445-.673-.833 1.358-.39 1.866-1.17 1.866-1.17-.446.28-.852.447-1.182.614-.508.223-1.016.334-1.524.446-2.403.39-3.752-.262-5.027-.78l-.436-.222s.508.78 1.812 1.17c-.343.391-.682.835-.682.835-2.322-.055-3.168-1.505-3.168-1.505 0-3.23 1.527-5.85 1.527-5.85z" /><path d="M11.922 10.643c.593 0 1.075-.5 1.075-1.116 0-.613-.48-1.113-1.075-1.113v.003c-.59 0-1.073.498-1.075 1.115 0 .611.483 1.111 1.075 1.111zM8.075 10.643c.593 0 1.075-.5 1.075-1.116 0-.613-.479-1.113-1.071-1.113l-.004.003C7.483 8.417 7 8.915 7 9.532c0 .611.483 1.111 1.075 1.111z" /></g><defs></defs></symbol><clipPath id="discord_a"><path d="M0 0h20v20H0z" /></clipPath><symbol viewBox="0 0 20 20" id="done"><path clip-rule="evenodd" d="M0 10C0 4.477 4.477 0 10 0s10 4.477 10 10-4.477 10-10 10S0 15.523 0 10zm13.707-1.293a1 1 0 0 0-1.414-1.414L9 10.586 7.707 9.293a1 1 0 0 0-1.414 1.414l2 2a1 1 0 0 0 1.414 0l4-4z" /></symbol><symbol viewBox="0 0 12 12" id="download"><path d="M10.5 7.5v2a1 1 0 0 1-1 1h-7a1 1 0 0 1-1-1v-2M3.5 5 6 7.5 8.5 5M6 7.5v-6" /></symbol><symbol viewBox="0 0 160 160" id="download-button"><g filter="url(#download-button_a)"><circle cx="80" cy="80" r="80"><animate attributeName="r" values="56;80;56" dur="3s" repeatCount="indefinite"></animate></circle></g><g filter="url(#download-button_b)"><circle class="download-button__outer" cx="80" cy="80" r="56"><animate attributeName="r" values="32;56;32" dur="3s" repeatCount="indefinite"></animate></circle></g><circle class="download-button__inner" cx="80" cy="80" r="32"></circle><path d="M89 83v4a2 2 0 0 1-2 2H73a2 2 0 0 1-2-2v-4M74.999 78l5 5 5-5M80 83V71" stroke-width="3" stroke-linecap="round" stroke-linejoin="round" /><defs><filter id="download-button_a" x="-4" y="-4" width="168" height="168" filterUnits="userSpaceOnUse" color-interpolation-filters="sRGB"><feFlood flood-opacity="0" result="BackgroundImageFix"></feFlood><feGaussianBlur in="BackgroundImage" stdDeviation="2"></feGaussianBlur><feComposite in2="SourceAlpha" operator="in" result="effect1_backgroundBlur"></feComposite><feBlend in="SourceGraphic" in2="effect1_backgroundBlur" result="shape"></feBlend></filter><filter id="download-button_b" x="20" y="20" width="120" height="120" filterUnits="userSpaceOnUse" color-interpolation-filters="sRGB"><feFlood flood-opacity="0" result="BackgroundImageFix"></feFlood><feGaussianBlur in="BackgroundImage" stdDeviation="2"></feGaussianBlur><feComposite in2="SourceAlpha" operator="in" result="effect1_backgroundBlur"></feComposite><feBlend in="SourceGraphic" in2="effect1_backgroundBlur" result="shape"></feBlend></filter></defs></symbol><symbol viewBox="0 0 24 24" id="eye"><path d="M4 12s2.91-6 8-6 8 6 8 6-2.91 6-8 6-8-6-8-6z" stroke-width="1.75" stroke-linecap="round" stroke-linejoin="round" /><path d="M12 14a2 2 0 1 0 0-4 2 2 0 0 0 0 4z" stroke-width="1.75" stroke-linecap="round" stroke-linejoin="round" /></symbol><symbol viewBox="0 0 24 24" id="eye-off"><path d="M10.473 6.18c.5-.12 1.013-.181 1.527-.18 5.09 0 8 6 8 6a13.91 13.91 0 0 1-1.57 2.393m-4.888-.803c-.2.221-.44.398-.708.521a2.126 2.126 0 0 1-2.431-.464 2.256 2.256 0 0 1-.48-.748 2.313 2.313 0 0 1 .03-1.759 2.25 2.25 0 0 1 .505-.73m5.862 6.045A7.183 7.183 0 0 1 12 18c-5.09 0-8-6-8-6a13.734 13.734 0 0 1 3.68-4.455l8.64 8.91zM4 4l16 16" stroke-width="1.75" stroke-linecap="round" stroke-linejoin="round" /></symbol><symbol viewBox="0 0 11 20" id="facebook"><path d="M7.184 20v-9.123h3.062l.459-3.555H7.184v-2.27c0-1.03.286-1.731 1.762-1.731l1.883-.001V.14A25.234 25.234 0 0 0 8.085 0C5.371 0 3.512 1.657 3.512 4.7v2.622H.443v3.555h3.07V20h3.672z" /></symbol><symbol viewBox="0 0 20 20" id="github"><path d="M10 .416c-5.525 0-10 4.4-10 9.827 0 4.342 2.865 8.025 6.838 9.323.5.093.683-.212.683-.473 0-.233-.008-.851-.013-1.67-2.781.592-3.368-1.319-3.368-1.319-.455-1.134-1.112-1.437-1.112-1.437-.906-.61.07-.597.07-.597 1.004.069 1.531 1.013 1.531 1.013.892 1.502 2.341 1.068 2.913.817.09-.636.347-1.068.633-1.314-2.22-.246-4.555-1.09-4.555-4.856 0-1.072.388-1.949 1.03-2.636-.113-.249-.45-1.248.087-2.601 0 0 .837-.264 2.75 1.007.8-.218 1.65-.326 2.5-.331.85.005 1.7.113 2.5.331 1.9-1.27 2.737-1.007 2.737-1.007.538 1.353.2 2.352.1 2.6A3.77 3.77 0 0 1 16.35 9.73c0 3.775-2.337 4.606-4.562 4.848.35.295.675.897.675 1.818 0 1.315-.013 2.372-.013 2.69 0 .258.175.566.688.468 4-1.29 6.863-4.975 6.863-9.311C20 4.816 15.523.416 10 .416z" /></symbol><symbol viewBox="0 0 20 20" id="header-apple-off"><path d="M7.235 20c-2.976-.017-5.439-6.093-5.439-9.188 0-5.055 3.792-6.161 5.254-6.161.658 0 1.362.258 1.982.487.434.16.882.325 1.132.325.15 0 .501-.14.812-.263.662-.264 1.487-.592 2.447-.592h.006c.717 0 2.89.157 4.197 2.12l.306.46-.44.332c-.63.475-1.778 1.342-1.778 3.058 0 2.032 1.3 2.814 1.926 3.19.275.166.56.337.56.711 0 .244-1.95 5.49-4.781 5.49-.693 0-1.183-.207-1.615-.391-.437-.186-.814-.346-1.437-.346-.316 0-.715.15-1.138.308-.578.215-1.232.46-1.974.46h-.02zM13.721 0c.074 2.66-1.828 4.504-3.727 4.388C9.68 2.266 11.893 0 13.72 0z" /></symbol><symbol viewBox="0 0 20 20" id="instagram"><path clip-rule="evenodd" d="M5 0a5 5 0 0 0-5 5v10a5 5 0 0 0 5 5h10a5 5 0 0 0 5-5V5a5 5 0 0 0-5-5H5zm5 6.666a3.333 3.333 0 1 0 0 6.667 3.333 3.333 0 0 0 0-6.667zm0 8.469a5.135 5.135 0 1 1 0-10.27 5.135 5.135 0 0 1 0 10.27zm4.34-9.807a1.2 1.2 0 1 1 1.997-1.332 1.2 1.2 0 0 1-1.997 1.332z" /></symbol><symbol viewBox="0 0 12 10" id="join-telegram"><path d="M4.709 6.59 4.51 9.384c.284 0 .407-.122.555-.269l1.331-1.272 2.76 2.02c.505.282.862.134.998-.465L11.965.91c.161-.749-.27-1.041-.763-.858L.557 4.13c-.726.282-.715.687-.123.87l2.721.847L9.477 1.89c.297-.197.568-.088.345.11L4.71 6.59z" /></symbol><symbol viewBox="0 0 22 23" id="like"><path d="M6 21.933H3a2 2 0 0 1-2-2v-7a2 2 0 0 1 2-2h3m7-2v-4a3 3 0 0 0-3-3l-4 9v11h11.28a2 2 0 0 0 2-1.7l1.38-9a1.999 1.999 0 0 0-2-2.3H13z" stroke-width="2" stroke-linecap="round" stroke-linejoin="round" /></symbol><symbol viewBox="0 0 20 20" id="linkedin"><g clip-path="url(#linkedin_a)"><path d="M19.996 20v-.001h.005v-7.335c0-3.588-.773-6.352-4.968-6.352-2.016 0-3.37 1.106-3.922 2.155h-.058v-1.82H7.075v13.352h4.142v-6.612c0-1.74.33-3.424 2.486-3.424 2.124 0 2.155 1.987 2.155 3.536v6.5h4.138zM.33 6.647h4.146V20H.329V6.647zM2.402 0A2.402 2.402 0 0 0 0 2.402c0 1.325 1.076 2.424 2.402 2.424 1.325 0 2.401-1.098 2.401-2.424A2.403 2.403 0 0 0 2.402 0z" /></g><defs></defs></symbol><clipPath id="linkedin_a"><path d="M0 0h20v20H0z" /></clipPath><symbol viewBox="0 0 12 12" id="log-in"><path d="M7.5 1.5h2a1 1 0 0 1 1 1v7a1 1 0 0 1-1 1h-2M5 8.5 7.5 6 5 3.5M7.5 6h-6" stroke-linecap="round" stroke-linejoin="round" /></symbol><symbol viewBox="0 0 24 24" id="logout"><path d="M11 20H6a2 2 0 0 1-2-2V6a2 2 0 0 1 2-2h5M20 12l-4-4m4 4-4 4m4-4H10" stroke-width="2" stroke-linecap="round" stroke-linejoin="round" /></symbol><symbol viewBox="0 0 20 16" id="medium"><path d="M18.404 1.945 20 .418V.084h-5.528l-3.94 9.807L6.049.084H.253v.334l1.864 2.244a.782.782 0 0 1 .252.653v8.819c.058.317-.046.644-.269.875L0 15.554v.33h5.954v-.334l-2.1-2.541a1.037 1.037 0 0 1-.289-.875V4.506l5.227 11.382h.607l4.494-11.382v9.067c0 .24 0 .288-.156.445l-1.617 1.564v.335h7.843v-.334l-1.558-1.526a.463.463 0 0 1-.178-.445V2.39a.461.461 0 0 1 .177-.445z" /></symbol><symbol viewBox="0 0 24 24" id="menu-discord"><g clip-path="url(#menu-discord_a)"><path d="M3.582 21.196H17.84l-.681-2.205 1.629 1.398 1.493 1.338L23.002 24V2.475C22.934 1.137 21.782 0 20.354 0L3.587.003C2.16.003 1.002 1.142 1.002 2.48v16.24c0 1.411 1.156 2.476 2.58 2.476zM14.13 5.683l-.033.012.012-.012h.021zM6.499 6.952c1.833-1.334 3.532-1.27 3.532-1.27l.137.135c-2.243.535-3.26 1.537-3.26 1.537s.272-.133.747-.336c3.021-1.188 6.32-1.102 9.374.402 0 0-1.019-.937-3.124-1.537l.186-.183c.291.001 1.831.055 3.479 1.26 0 0 1.844 3.15 1.844 7.02-.061-.074-1.144 1.666-3.931 1.726 0 0-.472-.534-.808-1 1.63-.468 2.24-1.404 2.24-1.404-.535.337-1.023.537-1.419.737-.609.268-1.219.4-1.828.535-2.884.468-4.503-.315-6.033-.936l-.523-.266s.609.936 2.174 1.404c-.411.469-.818 1.002-.818 1.002-2.786-.066-3.802-1.806-3.802-1.806 0-3.876 1.833-7.02 1.833-7.02z" /><path d="M14.307 12.771c.71 0 1.29-.6 1.29-1.34 0-.735-.576-1.335-1.29-1.335v.003c-.708 0-1.288.598-1.29 1.338 0 .734.579 1.334 1.29 1.334zM9.69 12.771c.711 0 1.29-.6 1.29-1.34 0-.735-.575-1.335-1.286-1.335l-.004.003c-.71 0-1.29.598-1.29 1.338 0 .734.58 1.334 1.29 1.334z" /></g><defs></defs></symbol><clipPath id="menu-discord_a"><path d="M0 0h24v24H0z" /></clipPath><symbol viewBox="0 0 24 20" id="menu-telegram"><path d="m9.417 13.18-.397 5.585c.568 0 .814-.244 1.11-.537l2.662-2.545 5.518 4.04c1.012.565 1.725.268 1.998-.93L23.93 1.82l.001-.001c.321-1.496-.54-2.081-1.527-1.714l-21.29 8.15c-1.453.565-1.43 1.375-.247 1.742L6.31 11.69 18.953 3.78c.595-.394 1.136-.176.691.218L9.417 13.18z" /></symbol><symbol viewBox="0 0 24 20" id="menu-twitter"><path d="M21.534 5.113A9.822 9.822 0 0 0 24 2.559v-.001c-.893.391-1.843.651-2.835.777A4.894 4.894 0 0 0 23.33.616a9.845 9.845 0 0 1-3.12 1.191 4.919 4.919 0 0 0-8.511 3.364c0 .39.033.765.114 1.122-4.09-.2-7.71-2.16-10.142-5.147a4.962 4.962 0 0 0-.674 2.487c0 1.704.877 3.214 2.186 4.089A4.863 4.863 0 0 1 .96 7.116v.054a4.943 4.943 0 0 0 3.942 4.835c-.401.11-.837.162-1.29.162-.315 0-.633-.018-.931-.084.637 1.948 2.447 3.381 4.597 3.428a9.89 9.89 0 0 1-6.101 2.098c-.403 0-.79-.018-1.177-.067a13.856 13.856 0 0 0 7.548 2.208c8.683 0 14.342-7.244 13.986-14.637z" /></symbol><symbol viewBox="0 0 20 4" id="minus"><path d="M1.833 2h16.333" stroke-width="2.5" stroke-linecap="round" stroke-linejoin="round" /></symbol><symbol viewBox="0 0 24 24" id="out"><path d="M17 13.067v5.2A1.733 1.733 0 0 1 15.267 20H5.733A1.733 1.733 0 0 1 4 18.267V8.733A1.733 1.733 0 0 1 5.733 7h5.2M15 4h5v5M10 14 20 4" stroke-width="2.5" stroke-linecap="round" stroke-linejoin="round" /></symbol><symbol viewBox="0 0 24 24" id="out copy"><path d="M17 13.067v5.2A1.733 1.733 0 0 1 15.267 20H5.733A1.733 1.733 0 0 1 4 18.267V8.733A1.733 1.733 0 0 1 5.733 7h5.2M15 4h5v5M10 14 20 4" stroke-width="2.5" stroke-linecap="round" stroke-linejoin="round" /></symbol><symbol viewBox="0 0 439 248" id="page404"><path d="M70.66 164.896H1.322v-23.76l71.496-96.12h37.8v89.64h21.384v30.24h-21.384V196h-39.96v-31.104zm5.831-30.24v-43.2l-31.752 43.2h31.752zm299.791 30.24h-69.336v-23.76l71.496-96.12h37.8v89.64h21.384v30.24h-21.384V196h-39.96v-31.104zm5.832-30.24v-43.2l-31.752 43.2h31.752z" /><g clip-path="url(#page404_a)"><path d="m291.48 162.115-69.427 40.674v-79.788l69.461-40.673v79.787h-.034zm-71.154 40.375-69.428-40.375V82.328l69.461 40.375v79.787h-.033zm.863-163.791-71.087 41.304v82.61l71.087 41.304 71.088-41.304v-82.61L221.189 38.7zm-70.224 41.736 70.224-40.807 71.088 40.375-71.088 41.239-70.224-40.807z" stroke-width="4" stroke-linejoin="bevel" /><path d="M292.277 162.613v-82.61L221.189 38.7l-71.087 41.304v82.61l71.087 41.304 71.088-41.304z" stroke-width="4" /><path d="m176.131 177.212-25.6-14.908v-82.61l25.6 14.842v82.676zM269.934 66.481l-.067 26.43v56.113l22.844 13.281v-82.61l-22.777-13.214z" /><path d="m150.531 79.694 25.6 30.614V94.536l-25.6-14.842z" /><path d="m269.867 123.822 22.844 28.588-22.844-13.148v-15.44z" /><path d="M292.707 152.411v9.895l-142.176-82.61 7.936-4.582 134.24 77.297z" /></g><defs></defs></symbol><clipPath id="page404_a"><path transform="translate(136.609 36)" d="M0 0h170v170H0z" /></clipPath><symbol viewBox="0 0 272 120" id="page404mobile"><path d="M64.336 80.024H30.952v-11.44l34.424-46.28h18.2v43.16h10.296v14.56H83.576V95h-19.24V80.024zm2.808-14.56v-20.8l-15.288 20.8h15.288zm144.344 14.56h-33.384v-11.44l34.424-46.28h18.2v43.16h10.296v14.56h-10.296V95h-19.24V80.024zm2.808-14.56v-20.8l-15.288 20.8h15.288z" /><g clip-path="url(#page404mobile_a)"><path d="m170.706 79.63-33.488 19.62V60.763l33.504-19.62V79.63h-.016zm-34.321 19.475L102.896 79.63V41.145l33.505 19.475v38.485h-.016zm.416-79.005-34.289 19.923V79.87l34.289 19.924 34.29-19.924V40.023L136.801 20.1zm-33.873 20.132 33.873-19.683 34.29 19.474-34.29 19.892-33.873-19.683z" stroke-width="1.935" stroke-linejoin="bevel" /><path d="M171.091 79.87V40.023L136.801 20.1l-34.289 19.923V79.87l34.289 19.924 34.29-19.924z" stroke-width="1.935" /><path d="m115.071 86.912-12.348-7.19V39.874l12.348 7.158v39.88zM160.313 33.5l-.032 12.748v27.066l11.019 6.407V39.874l-10.987-6.375z" /><path d="m102.723 39.874 12.348 14.767v-7.608l-12.348-7.159z" /><path d="M160.281 61.16 171.3 74.948l-11.019-6.343V61.16z" /><path d="M171.302 74.95v4.772l-68.579-39.847 3.827-2.21 64.752 37.284z" /></g><defs></defs></symbol><clipPath id="page404mobile_a"><path transform="translate(96 18.799)" d="M0 0h82v82H0z" /></clipPath><symbol viewBox="0 0 32 32" id="pending"><circle cx="16" cy="16" r="12" stroke-width="3" stroke-linecap="round" stroke-linejoin="round"></circle><path d="M16 9.334v5.43a2 2 0 0 0 1.106 1.789l4.227 2.114" stroke-width="3" stroke-linecap="round" stroke-linejoin="round" /></symbol><symbol viewBox="0 0 26 32" id="play"><path d="M1.667 1 25 16 1.667 31V1z" stroke-width="2" stroke-linecap="round" stroke-linejoin="round" /></symbol><symbol viewBox="0 0 28 28" id="plus"><path d="M14 5.834v16.333M5.833 14h16.333" stroke-width="2.5" stroke-linecap="round" stroke-linejoin="round" /></symbol><symbol viewBox="0 0 24 24" id="poly"><path clip-rule="evenodd" d="M22.392 6 12 0 1.608 6v12L12 24l10.392-6V6zm-3.464 2L12 4 5.072 8v8L12 20l6.928-4V8z" /></symbol><symbol viewBox="0 0 16 16" id="question"><path clip-rule="evenodd" d="M2.75 8a5.25 5.25 0 1 1 10.5 0 5.25 5.25 0 0 1-10.5 0zM8 1.25a6.75 6.75 0 1 0 0 13.5 6.75 6.75 0 0 0 0-13.5zm0 4.167c-.69 0-1.25.56-1.25 1.25a.75.75 0 0 1-1.5 0A2.75 2.75 0 1 1 9.32 9.08c-.192.105-.35.226-.453.345-.099.116-.117.194-.117.242h-1.5c0-.505.22-.916.479-1.218.256-.299.577-.524.87-.685A1.25 1.25 0 0 0 8 5.417zm-.75 5.916a.75.75 0 0 1 .75-.75h.007a.75.75 0 0 1 0 1.5H8a.75.75 0 0 1-.75-.75z" /></symbol><symbol viewBox="0 0 20 20" id="reddit"><path clip-rule="evenodd" d="M19.603 8.867c.243.346.38.755.396 1.178a2.191 2.191 0 0 1-1.216 1.996c.016.22.016.441 0 .661 0 3.363-3.92 6.096-8.754 6.096s-8.753-2.733-8.753-6.096a4.31 4.31 0 0 1 0-.66 2.193 2.193 0 1 1 2.417-3.589A10.72 10.72 0 0 1 9.55 6.606l1.11-5.21a.467.467 0 0 1 .556-.36l3.679.736a1.501 1.501 0 1 1-.195.916l-3.213-.676-.976 4.684a10.69 10.69 0 0 1 5.78 1.847 2.192 2.192 0 0 1 3.313.324zm-6.16 4.178a1.5 1.5 0 1 0 0-3 1.5 1.5 0 0 0 0 3zm-5.452-1.5a1.5 1.5 0 1 1-3.001 0 1.5 1.5 0 0 1 3 0zm4.722 4.76c-.614.278-1.519.547-2.714.54-1.203.01-2.113-.26-2.73-.54a4.62 4.62 0 0 1-.702-.391 3.031 3.031 0 0 1-.235-.178l-.015-.013-.005-.005-.001-.001-.001-.001a.407.407 0 0 1 .548-.6l.005.004a2.27 2.27 0 0 0 .164.124c.125.085.317.202.578.32.518.235 1.309.475 2.378.468 1.078.01 1.874-.232 2.394-.468.261-.118.454-.236.578-.32a2.267 2.267 0 0 0 .165-.125l.004-.003a.407.407 0 0 1 .55.6h-.002l-.002.002-.005.005-.015.013-.05.042a3.104 3.104 0 0 1-.185.136c-.16.11-.393.251-.702.39z" /></symbol><symbol viewBox="0 0 24 24" id="search"><path d="M11 19a8 8 0 1 0 0-16 8 8 0 0 0 0 16zM21 21l-4.35-4.35" stroke-width="2" stroke-linecap="round" stroke-linejoin="round" /></symbol><symbol viewBox="0 0 22 22" id="settings"><path d="M1.132 12.63a9.942 9.942 0 0 1 0-3.26c1.102.026 2.092-.502 2.477-1.431.385-.93.058-2.004-.74-2.763a9.942 9.942 0 0 1 2.306-2.307c.76.798 1.834 1.125 2.764.74.93-.385 1.457-1.376 1.43-2.477a9.942 9.942 0 0 1 3.262 0c-.027 1.102.501 2.092 1.43 2.477.93.385 2.004.058 2.763-.74a9.942 9.942 0 0 1 2.307 2.306c-.798.76-1.125 1.834-.74 2.764.385.93 1.376 1.457 2.477 1.43.18 1.08.18 2.182 0 3.262-1.102-.027-2.092.501-2.477 1.43-.385.93-.058 2.004.74 2.763a9.943 9.943 0 0 1-2.306 2.307c-.76-.798-1.834-1.125-2.764-.74-.93.385-1.457 1.376-1.43 2.477-1.08.18-2.182.18-3.262 0 .027-1.102-.5-2.092-1.43-2.477-.93-.385-2.004-.058-2.763.74a9.942 9.942 0 0 1-2.307-2.306c.798-.76 1.125-1.834.74-2.764-.385-.93-1.376-1.457-2.477-1.43v-.001zM11 14a3 3 0 1 0 0-6 3 3 0 0 0 0 6z" /></symbol><symbol viewBox="0 0 14 14" id="slider-arrow"><path d="m10.48 6.166-4.47-4.47L7.187.518 13.669 7 7.188 13.48l-1.179-1.178 4.47-4.47H.336V6.166h10.143z" /></symbol><symbol viewBox="0 0 48 48" id="slider-loader"><circle cx="24" cy="24" r="24"></circle></symbol><symbol viewBox="0 0 8 4" id="sort"><path d="m4 0 4 4H0l4-4z" /></symbol><symbol viewBox="0 0 20 20" id="spinner"><path d="M17.071 2.929 15.5 4.5a7.778 7.778 0 1 0 2.278 5.5H20a10 10 0 1 1-2.929-7.071z" /></symbol><symbol viewBox="0 0 18 13" id="success"><path d="M17 1 6 12 1 7" stroke-width="2" stroke-linecap="round" stroke-linejoin="round" /></symbol><symbol viewBox="0 0 20 18" id="telegram"><path d="m7.848 11.65-.331 4.654c.473 0 .678-.203.924-.448l2.22-2.12 4.598 3.367c.843.47 1.437.223 1.665-.776l3.018-14.143v-.001C20.21.936 19.493.449 18.67.755L.928 7.547c-1.21.47-1.192 1.145-.205 1.451l4.535 1.41 10.536-6.592c.496-.328.947-.146.576.182L7.848 11.65z" /></symbol><symbol viewBox="0 0 20 18" id="twitter"><path d="M17.945 4.928A8.185 8.185 0 0 0 20 2.799a8.563 8.563 0 0 1-2.363.647 4.078 4.078 0 0 0 1.805-2.266 8.204 8.204 0 0 1-2.6.992 4.099 4.099 0 0 0-7.093 2.803c0 .326.028.638.095.936a11.608 11.608 0 0 1-8.451-4.29A4.135 4.135 0 0 0 .83 3.695c0 1.42.73 2.678 1.821 3.408A4.053 4.053 0 0 1 .8 6.597v.045a4.12 4.12 0 0 0 3.285 4.029 4.076 4.076 0 0 1-1.075.135c-.262 0-.527-.015-.776-.07.531 1.623 2.04 2.817 3.831 2.856a8.242 8.242 0 0 1-5.084 1.749c-.336 0-.658-.015-.981-.056a11.547 11.547 0 0 0 6.29 1.84c7.236 0 11.952-6.037 11.655-12.197z" /></symbol><symbol viewBox="0 0 20 16" id="youtube"><path d="m19.559 2.941.025.163a2.536 2.536 0 0 0-1.723-1.76l-.018-.004C16.284.917 10.01.917 10.01.917S3.75.909 2.176 1.34A2.537 2.537 0 0 0 .441 3.087l-.005.017C-.146 6.147-.15 9.803.462 13.06l-.026-.165c.242.858.895 1.52 1.724 1.76l.017.005c1.558.424 7.834.424 7.834.424s6.257 0 7.833-.425a2.536 2.536 0 0 0 1.737-1.746l.004-.018C19.85 11.48 20 9.852 20 8.19v-.376c0-1.664-.151-3.293-.442-4.872zm-11.55 8.102V4.965l5.22 3.044-5.22 3.034z" /></symbol></defs></svg>