<svg width="20" height="20" viewBox="0 0 20 20" fill="none" xmlns="http://www.w3.org/2000/svg">
<g clip-path="url(#clip0)">
<path d="M19.996 19.9998V19.999H20.001V12.664C20.001 9.07569 19.2285 6.31152 15.0335 6.31152C13.0169 6.31152 11.6635 7.41819 11.111 8.46735H11.0527V6.64652H7.0752V19.999H11.2169V13.3873C11.2169 11.6465 11.5469 9.96318 13.7027 9.96318C15.8269 9.96318 15.8585 11.9498 15.8585 13.499V19.9998H19.996Z" fill="#676C70"/>
<path d="M0.329102 6.64746H4.47577V20H0.329102V6.64746Z" fill="#676C70"/>
<path d="M2.40167 0C1.07583 0 0 1.07583 0 2.40167C0 3.7275 1.07583 4.82583 2.40167 4.82583C3.7275 4.82583 4.80333 3.7275 4.80333 2.40167C4.8025 1.07583 3.72667 0 2.40167 0V0Z" fill="#676C70"/>
</g>
<defs>
<clipPath id="clip0">
<rect width="20" height="20" fill="white"/>
</clipPath>
</defs>
</svg>
