<svg width="24" height="24" viewBox="0 0 24 24" fill="none" xmlns="http://www.w3.org/2000/svg">
<g clip-path="url(#clip0)">
<path d="M3.58195 21.196H17.841L17.16 18.991L18.789 20.389L20.282 21.727L23.002 24V2.475C22.934 1.137 21.782 0 20.354 0L3.58695 0.003C2.15995 0.003 1.00195 1.142 1.00195 2.48V18.72C1.00195 20.131 2.15795 21.196 3.58195 21.196ZM14.13 5.683L14.097 5.695L14.109 5.683H14.13ZM6.49895 6.952C8.33195 5.618 10.031 5.682 10.031 5.682L10.168 5.817C7.92495 6.352 6.90795 7.354 6.90795 7.354C6.90795 7.354 7.17995 7.221 7.65495 7.018C10.676 5.83 13.975 5.916 17.029 7.42C17.029 7.42 16.01 6.483 13.905 5.883L14.091 5.7C14.382 5.701 15.922 5.755 17.57 6.96C17.57 6.96 19.414 10.11 19.414 13.98C19.353 13.906 18.27 15.646 15.483 15.706C15.483 15.706 15.011 15.172 14.675 14.706C16.305 14.238 16.915 13.302 16.915 13.302C16.38 13.639 15.892 13.839 15.496 14.039C14.887 14.307 14.277 14.439 13.668 14.574C10.784 15.042 9.16495 14.259 7.63495 13.638L7.11195 13.372C7.11195 13.372 7.72095 14.308 9.28595 14.776C8.87495 15.245 8.46795 15.778 8.46795 15.778C5.68195 15.712 4.66595 13.972 4.66595 13.972C4.66595 10.096 6.49895 6.952 6.49895 6.952Z" fill="#B5B6B8"/>
<path d="M14.3066 12.7712C15.0176 12.7712 15.5966 12.1712 15.5966 11.4312C15.5966 10.6962 15.0206 10.0962 14.3066 10.0962V10.0992C13.5986 10.0992 13.0186 10.6972 13.0166 11.4372C13.0166 12.1712 13.5956 12.7712 14.3066 12.7712Z" fill="#B5B6B8"/>
<path d="M9.69039 12.7712C10.4014 12.7712 10.9804 12.1712 10.9804 11.4312C10.9804 10.6962 10.4054 10.0962 9.69439 10.0962L9.69039 10.0992C8.97939 10.0992 8.40039 10.6972 8.40039 11.4372C8.40039 12.1712 8.97939 12.7712 9.69039 12.7712Z" fill="#B5B6B8"/>
</g>
<defs>
<clipPath id="clip0">
<rect width="24" height="24" fill="white"/>
</clipPath>
</defs>
</svg>
