<svg width="24" height="24" viewBox="0 0 24 24" fill="none" xmlns="http://www.w3.org/2000/svg">
<path d="M13.8099 12.0029L1.75764 23.6084C1.19325 23.2227 0.858166 22.5811 0.864091 21.8976V2.1083C0.858166 1.42474 1.19325 0.783169 1.75764 0.397461L13.8099 12.0029Z" fill="#2196F3"/>
<path d="M18.0272 7.94837L13.81 12.0021L1.75781 0.396639C1.80322 0.361444 1.85052 0.328702 1.89946 0.298564C2.53643 -0.087502 3.33206 -0.0999656 3.98083 0.265873L18.0272 7.94837Z" fill="#4CAF50"/>
<path d="M23.1365 12.002C23.1444 12.7737 22.7251 13.4864 22.0469 13.8545L18.0258 16.0557L13.8086 12.002L18.0258 7.94824L22.0469 10.1494C22.7251 10.5175 23.1444 11.2303 23.1365 12.002Z" fill="#FFC107"/>
<path d="M18.0272 16.0557L3.98083 23.7382C3.33063 24.0984 2.53802 24.0859 1.89946 23.7055C1.85052 23.6754 1.80322 23.6426 1.75781 23.6074L13.8101 12.002L18.0272 16.0557Z" fill="#F44336"/>
</svg>
