<svg width="22" height="22" viewBox="0 0 22 22" fill="none" xmlns="http://www.w3.org/2000/svg">
<path d="M1.13209 12.63C0.952715 11.5507 0.952715 10.4493 1.13209 9.37001C2.23409 9.39601 3.22409 8.86801 3.60909 7.93901C3.99409 7.00901 3.66709 5.93501 2.86909 5.17601C3.5055 4.2853 4.28465 3.50581 5.17509 2.86901C5.93509 3.66701 7.00909 3.99401 7.93909 3.60901C8.86909 3.22401 9.39609 2.23301 9.36909 1.13201C10.449 0.952416 11.5512 0.952416 12.6311 1.13201C12.6041 2.23401 13.1321 3.22401 14.0611 3.60901C14.9911 3.99401 16.0651 3.66701 16.8241 2.86901C17.7148 3.50542 18.4943 4.28458 19.1311 5.17501C18.3331 5.93501 18.0061 7.00901 18.3911 7.93901C18.7761 8.86901 19.7671 9.39601 20.8681 9.36901C21.0477 10.4489 21.0477 11.5511 20.8681 12.631C19.7661 12.604 18.7761 13.132 18.3911 14.061C18.0061 14.991 18.3331 16.065 19.1311 16.824C18.4947 17.7147 17.7155 18.4942 16.8251 19.131C16.0651 18.333 14.9911 18.006 14.0611 18.391C13.1311 18.776 12.6041 19.767 12.6311 20.868C11.5512 21.0476 10.449 21.0476 9.36909 20.868C9.39609 19.766 8.86809 18.776 7.93909 18.391C7.00909 18.006 5.93509 18.333 5.17609 19.131C4.28538 18.4946 3.50589 17.7154 2.86909 16.825C3.66709 16.065 3.99409 14.991 3.60909 14.061C3.22409 13.131 2.23309 12.604 1.13209 12.631V12.63ZM11.0001 14C11.7957 14 12.5588 13.6839 13.1214 13.1213C13.684 12.5587 14.0001 11.7957 14.0001 11C14.0001 10.2044 13.684 9.4413 13.1214 8.87869C12.5588 8.31608 11.7957 8.00001 11.0001 8.00001C10.2044 8.00001 9.44138 8.31608 8.87877 8.87869C8.31616 9.4413 8.00009 10.2044 8.00009 11C8.00009 11.7957 8.31616 12.5587 8.87877 13.1213C9.44138 13.6839 10.2044 14 11.0001 14Z" fill="#FAFCFC"/>
</svg>
