<svg width="20" height="20" viewBox="0 0 20 20" fill="none" xmlns="http://www.w3.org/2000/svg">
<path d="M17.0711 2.92899L15.5 4.5001C14.2277 3.22765 12.5535 2.43572 10.7628 2.25925C8.97202 2.08278 7.17549 2.53269 5.67926 3.53231C4.18304 4.53193 3.07971 6.01941 2.55727 7.74132C2.03482 9.46323 2.12558 11.313 2.81409 12.9755C3.5026 14.638 4.74625 16.0103 6.33314 16.8587C7.92004 17.707 9.75199 17.9789 11.5169 17.6279C13.2817 17.277 14.8703 16.325 16.012 14.9341C17.1536 13.5432 17.7776 11.7995 17.7778 10.0001H20C20 12.3136 19.1978 14.5556 17.7301 16.344C16.2623 18.1324 14.2199 19.3565 11.9508 19.8079C9.68172 20.2592 7.32633 19.9098 5.28597 18.8192C3.2456 17.7285 1.64652 15.9642 0.761179 13.8268C-0.124163 11.6893 -0.240985 9.31101 0.43062 7.09709C1.10222 4.88317 2.5207 2.9706 4.44436 1.68528C6.36801 0.399954 8.67783 -0.178608 10.9802 0.0481746C13.2826 0.274957 15.4352 1.29305 17.0711 2.92899Z" fill="#FAFCFC"/>
</svg>
