<svg width="20" height="18" viewBox="0 0 20 18" fill="none" xmlns="http://www.w3.org/2000/svg">
<path d="M17.945 4.9275C18.7583 4.35 19.4425 3.62917 20 2.79917V2.79833C19.2558 3.12417 18.4642 3.34083 17.6375 3.44583C18.4875 2.93833 19.1367 2.14083 19.4417 1.18C18.6492 1.6525 17.7742 1.98583 16.8417 2.1725C16.0892 1.37083 15.0167 0.875 13.8467 0.875C11.5767 0.875 9.74917 2.7175 9.74917 4.97583C9.74917 5.30083 9.77667 5.61333 9.84417 5.91083C6.43583 5.74417 3.41917 4.11083 1.3925 1.62167C1.03917 2.23583 0.830833 2.93833 0.830833 3.69417C0.830833 5.11417 1.56167 6.3725 2.6525 7.10167C1.99333 7.08917 1.3475 6.8975 0.8 6.59667V6.64167C0.8 8.63417 2.22083 10.2892 4.085 10.6708C3.75083 10.7625 3.3875 10.8058 3.01 10.8058C2.7475 10.8058 2.4825 10.7908 2.23417 10.7358C2.765 12.3592 4.27333 13.5533 6.065 13.5925C4.67 14.6833 2.89833 15.3408 0.980833 15.3408C0.645 15.3408 0.3225 15.3258 0 15.285C1.81667 16.4558 3.96833 17.125 6.29 17.125C13.5258 17.125 18.2417 11.0883 17.945 4.9275Z" fill="#676C70"/>
</svg>
