<svg width="20" height="16" viewBox="0 0 20 16" fill="none" xmlns="http://www.w3.org/2000/svg">
<path d="M19.559 2.94117L19.584 3.1045C19.3423 2.247 18.6898 1.58534 17.8606 1.3445L17.8431 1.34034C16.284 0.917004 10.0098 0.917004 10.0098 0.917004C10.0098 0.917004 3.75147 0.90867 2.17647 1.34034C1.33147 1.58534 0.678133 2.247 0.440633 3.087L0.436466 3.1045C-0.146034 6.147 -0.150201 9.80284 0.462299 13.0603L0.436466 12.8953C0.678133 13.7528 1.33063 14.4145 2.1598 14.6553L2.1773 14.6595C3.7348 15.0837 10.0106 15.0837 10.0106 15.0837C10.0106 15.0837 16.2681 15.0837 17.844 14.6595C18.6898 14.4145 19.3431 13.7528 19.5806 12.9128L19.5848 12.8953C19.8498 11.4803 20.0015 9.852 20.0015 8.18867C20.0015 8.12784 20.0015 8.06617 20.0006 8.0045C20.0015 7.94784 20.0015 7.88034 20.0015 7.81284C20.0015 6.14867 19.8498 4.52034 19.559 2.94117ZM8.00813 11.0428V4.96534L13.2298 8.00867L8.00813 11.0428Z" fill="#676C70"/>
</svg>
